<svg width="452" height="283" viewBox="0 0 452 283" fill="none" xmlns="http://www.w3.org/2000/svg">
<g opacity="0.25" filter="url(#filter0_f)">
<path d="M225.362 239.04C225.362 237.226 225.922 236.32 227.042 236.32C227.149 236.32 227.269 236.333 227.402 236.36C227.855 236.44 228.082 236.786 228.082 237.4C228.082 238.013 227.975 238.786 227.762 239.72C227.549 240.413 227.402 240.933 227.322 241.28C227.402 241.733 227.615 242.32 227.962 243.04C228.335 243.733 228.829 244.08 229.442 244.08C230.082 244.08 230.789 243.653 231.562 242.8C231.722 242.613 231.869 242.52 232.002 242.52C232.162 242.52 232.242 242.613 232.242 242.8C232.269 242.96 232.175 243.186 231.962 243.48C231.135 244.466 230.269 244.96 229.362 244.96C228.055 244.96 227.002 244 226.202 242.08C225.375 243.973 224.202 245.613 222.682 247C221.162 248.36 219.655 249.04 218.162 249.04C216.749 249.04 216.042 247.973 216.042 245.84C216.042 244.16 217.602 241.066 220.722 236.56C223.869 232.053 226.269 229.8 227.922 229.8C228.269 229.8 228.575 229.906 228.842 230.12C229.135 230.333 229.282 230.586 229.282 230.88C229.282 230.853 229.082 231.053 228.682 231.48C228.309 231.906 227.255 233.053 225.522 234.92C223.815 236.786 222.135 238.84 220.482 241.08C218.829 243.32 218.002 245.053 218.002 246.28C218.002 246.6 218.082 246.946 218.242 247.32C218.429 247.693 218.722 247.88 219.122 247.88C220.295 247.88 221.669 246.973 223.242 245.16C224.549 243.56 225.349 242.213 225.642 241.12C225.455 240.56 225.362 239.866 225.362 239.04ZM228.611 253.64C229.891 255.24 230.998 256.04 231.931 256.04C233.451 256.04 235.091 254.826 236.851 252.4C238.131 250.613 239.385 248.36 240.611 245.64L242.131 241.96L236.251 246.56C234.438 247.973 232.985 248.68 231.891 248.68C231.305 248.68 230.838 248.48 230.491 248.08C230.145 247.68 229.971 247.226 229.971 246.72C229.971 245.573 230.958 243.693 232.931 241.08C234.905 238.44 236.345 237.12 237.251 237.12C238.158 237.12 238.611 237.426 238.611 238.04C238.611 238.28 237.425 239.666 235.051 242.2C232.705 244.706 231.531 246.4 231.531 247.28C231.531 247.626 231.758 247.8 232.211 247.8C233.065 247.8 234.771 246.8 237.331 244.8C239.918 242.8 241.865 241.146 243.171 239.84C243.465 239.493 243.878 238.973 244.411 238.28C244.918 237.693 245.478 237.4 246.091 237.4C246.705 237.4 247.011 237.693 247.011 238.28C247.011 238.386 246.411 239.333 245.211 241.12C244.011 242.906 243.385 243.853 243.331 243.96C242.505 245.56 241.238 247.893 239.531 250.96C236.945 255.12 234.358 257.2 231.771 257.2C230.918 257.2 230.171 256.826 229.531 256.08C228.891 255.36 228.585 254.546 228.611 253.64ZM294.156 209.88C294.156 211.533 293.676 212.36 292.716 212.36C292.449 212.36 292.182 212.146 291.916 211.72C291.436 210.866 290.636 210.44 289.516 210.44C287.062 210.44 284.769 212.2 282.636 215.72C282.209 216.413 280.876 218.92 278.636 223.24H279.596C285.409 223.24 289.276 223.16 291.196 223C291.409 223.053 291.516 223.16 291.516 223.32C291.516 223.746 289.622 224.333 285.836 225.08C282.262 225.666 279.329 226.173 277.036 226.6C275.382 230.013 273.382 234.066 271.036 238.76C266.236 247.72 263.062 253.293 261.516 255.48C256.876 262.093 252.342 265.4 247.916 265.4C246.369 265.4 245.036 264.733 243.916 263.4C242.742 262.12 242.129 260.68 242.076 259.08C242.236 258.44 242.476 258.12 242.796 258.12C242.956 258.12 243.062 258.306 243.116 258.68C243.436 260.066 243.969 261.133 244.716 261.88C245.462 262.626 246.236 263 247.036 263C251.569 263 255.702 260.2 259.436 254.6C261.569 251.4 264.476 245.64 268.156 237.32L272.476 226.92C267.142 226.866 264.476 226.226 264.476 225C264.476 224.466 264.716 224.013 265.196 223.64C265.729 223.266 266.182 223.08 266.556 223.08L274.076 223.24C279.302 211.613 284.102 205.8 288.476 205.8C290.129 205.8 291.809 206.6 293.516 208.2C293.942 208.626 294.156 209.186 294.156 209.88ZM289.571 232.68C289.971 232.68 290.344 232.813 290.691 233.08C291.064 233.32 291.251 233.613 291.251 233.96C291.251 234.306 291.077 234.613 290.731 234.88C290.411 235.12 290.051 235.24 289.651 235.24C289.251 235.24 288.877 235.093 288.531 234.8C288.211 234.506 288.051 234.173 288.051 233.8C288.051 233.053 288.557 232.68 289.571 232.68ZM282.331 249.44C280.971 249.44 280.291 248.56 280.291 246.8C280.291 245.36 281.077 243.373 282.651 240.84C284.224 238.28 285.491 236.986 286.451 236.96C286.717 236.96 287.011 237.066 287.331 237.28C287.677 237.493 287.851 237.706 287.851 237.92C287.717 238.106 287.557 238.32 287.371 238.56C287.184 238.773 286.984 239.013 286.771 239.28C286.557 239.546 286.264 239.933 285.891 240.44C285.517 240.92 285.157 241.386 284.811 241.84C282.811 244.426 281.811 246.213 281.811 247.2C281.811 248.16 282.144 248.64 282.811 248.64C283.371 248.64 284.131 248.333 285.091 247.72C287.331 246.333 289.104 244.813 290.411 243.16C290.891 242.546 291.211 242.24 291.371 242.24C291.557 242.24 291.651 242.346 291.651 242.56C291.651 242.773 291.344 243.2 290.731 243.84C290.117 244.48 289.624 244.986 289.251 245.36C288.904 245.733 288.664 245.986 288.531 246.12C288.397 246.226 288.144 246.453 287.771 246.8C287.424 247.12 287.157 247.346 286.971 247.48C286.784 247.613 286.517 247.813 286.171 248.08C285.824 248.346 285.517 248.546 285.251 248.68C284.984 248.786 284.677 248.92 284.331 249.08C283.771 249.32 283.104 249.44 282.331 249.44ZM299.034 239.04C299.034 237.226 299.594 236.32 300.714 236.32C300.821 236.32 300.941 236.333 301.074 236.36C301.527 236.44 301.754 236.786 301.754 237.4C301.754 238.013 301.647 238.786 301.434 239.72C301.221 240.413 301.074 240.933 300.994 241.28C301.074 241.733 301.287 242.32 301.634 243.04C302.007 243.733 302.501 244.08 303.114 244.08C303.754 244.08 304.461 243.653 305.234 242.8C305.394 242.613 305.541 242.52 305.674 242.52C305.834 242.52 305.914 242.613 305.914 242.8C305.941 242.96 305.847 243.186 305.634 243.48C304.807 244.466 303.941 244.96 303.034 244.96C301.727 244.96 300.674 244 299.874 242.08C299.047 243.973 297.874 245.613 296.354 247C294.834 248.36 293.327 249.04 291.834 249.04C290.421 249.04 289.714 247.973 289.714 245.84C289.714 244.16 291.274 241.066 294.394 236.56C297.541 232.053 299.941 229.8 301.594 229.8C301.941 229.8 302.247 229.906 302.514 230.12C302.807 230.333 302.954 230.586 302.954 230.88C302.954 230.853 302.754 231.053 302.354 231.48C301.981 231.906 300.927 233.053 299.194 234.92C297.487 236.786 295.807 238.84 294.154 241.08C292.501 243.32 291.674 245.053 291.674 246.28C291.674 246.6 291.754 246.946 291.914 247.32C292.101 247.693 292.394 247.88 292.794 247.88C293.967 247.88 295.341 246.973 296.914 245.16C298.221 243.56 299.021 242.213 299.314 241.12C299.127 240.56 299.034 239.866 299.034 239.04ZM312.683 249.2C310.683 249.2 309.683 248.093 309.683 245.88C309.683 244.76 309.977 243.533 310.563 242.2C311.15 240.866 311.79 239.746 312.483 238.84C312.35 238.866 312.177 238.88 311.963 238.88C311.323 238.88 310.79 238.426 310.363 237.52L307.403 241.36C305.75 243.413 304.79 244.44 304.523 244.44C304.39 244.44 304.323 244.386 304.323 244.28C304.323 244.013 304.55 243.626 305.003 243.12C307.323 240.426 308.963 238.146 309.923 236.28C310.537 233.96 311.31 232.8 312.243 232.8C312.857 232.8 313.163 233.066 313.163 233.6C313.163 234.133 312.83 234.813 312.163 235.64L311.203 236.92C311.203 237.48 311.617 237.76 312.443 237.76C312.923 237.76 313.457 237.586 314.043 237.24L315.083 236.6C315.137 236.573 315.27 236.56 315.483 236.56C315.697 236.56 315.923 236.693 316.163 236.96C316.403 237.226 316.483 237.466 316.403 237.68L313.643 241.16C311.937 243.346 311.083 245.08 311.083 246.36C311.083 247.613 311.67 248.24 312.843 248.24C314.07 248.24 315.577 247.586 317.363 246.28C318.43 245.506 319.403 244.64 320.283 243.68C321.11 242.72 321.563 242.24 321.643 242.24C321.83 242.24 321.923 242.346 321.923 242.56C321.923 242.746 321.803 242.973 321.563 243.24L320.283 244.68C319.563 245.426 318.763 246.146 317.883 246.84C315.777 248.413 314.043 249.2 312.683 249.2ZM328.946 232.68C329.346 232.68 329.719 232.813 330.066 233.08C330.439 233.32 330.626 233.613 330.626 233.96C330.626 234.306 330.452 234.613 330.106 234.88C329.786 235.12 329.426 235.24 329.026 235.24C328.626 235.24 328.252 235.093 327.906 234.8C327.586 234.506 327.426 234.173 327.426 233.8C327.426 233.053 327.932 232.68 328.946 232.68ZM321.706 249.44C320.346 249.44 319.666 248.56 319.666 246.8C319.666 245.36 320.452 243.373 322.026 240.84C323.599 238.28 324.866 236.986 325.826 236.96C326.092 236.96 326.386 237.066 326.706 237.28C327.052 237.493 327.226 237.706 327.226 237.92C327.092 238.106 326.932 238.32 326.746 238.56C326.559 238.773 326.359 239.013 326.146 239.28C325.932 239.546 325.639 239.933 325.266 240.44C324.892 240.92 324.532 241.386 324.186 241.84C322.186 244.426 321.186 246.213 321.186 247.2C321.186 248.16 321.519 248.64 322.186 248.64C322.746 248.64 323.506 248.333 324.466 247.72C326.706 246.333 328.479 244.813 329.786 243.16C330.266 242.546 330.586 242.24 330.746 242.24C330.932 242.24 331.026 242.346 331.026 242.56C331.026 242.773 330.719 243.2 330.106 243.84C329.492 244.48 328.999 244.986 328.626 245.36C328.279 245.733 328.039 245.986 327.906 246.12C327.772 246.226 327.519 246.453 327.146 246.8C326.799 247.12 326.532 247.346 326.346 247.48C326.159 247.613 325.892 247.813 325.546 248.08C325.199 248.346 324.892 248.546 324.626 248.68C324.359 248.786 324.052 248.92 323.706 249.08C323.146 249.32 322.479 249.44 321.706 249.44ZM332.329 249.52C332.036 249.52 331.769 249.48 331.529 249.4C329.822 248.92 328.969 247.96 328.969 246.52C328.969 244.653 330.142 242.493 332.489 240.04C334.836 237.586 336.942 236.36 338.809 236.36C339.422 236.36 339.916 236.533 340.289 236.88C340.689 237.2 340.889 237.653 340.889 238.24C340.889 238.8 340.716 239.4 340.369 240.04C340.022 240.653 339.502 240.96 338.809 240.96C338.116 240.96 337.769 240.746 337.769 240.32C337.769 240.026 337.942 239.586 338.289 239C338.662 238.386 338.849 238.066 338.849 238.04C338.849 237.986 338.809 237.96 338.729 237.96C337.982 238.04 336.956 238.573 335.649 239.56C334.369 240.546 333.489 241.373 333.009 242.04L331.449 244.32C331.182 244.746 330.982 245.253 330.849 245.84C330.742 246.426 330.689 246.866 330.689 247.16C330.689 247.453 330.849 247.786 331.169 248.16C331.516 248.533 331.996 248.72 332.609 248.72C333.942 248.72 335.596 247.946 337.569 246.4C339.542 244.826 341.062 243.333 342.129 241.92C342.262 241.76 342.422 241.68 342.609 241.68C342.796 241.68 342.889 241.733 342.889 241.84C342.889 241.946 342.822 242.08 342.689 242.24C341.222 244.186 339.462 245.893 337.409 247.36C335.382 248.8 333.689 249.52 332.329 249.52Z" fill="url(#paint0_linear)"/>
</g>
<path opacity="0.8" d="M229.362 235.04C229.362 233.226 229.922 232.32 231.042 232.32C231.149 232.32 231.269 232.333 231.402 232.36C231.855 232.44 232.082 232.786 232.082 233.4C232.082 234.013 231.975 234.786 231.762 235.72C231.549 236.413 231.402 236.933 231.322 237.28C231.402 237.733 231.615 238.32 231.962 239.04C232.335 239.733 232.829 240.08 233.442 240.08C234.082 240.08 234.789 239.653 235.562 238.8C235.722 238.613 235.869 238.52 236.002 238.52C236.162 238.52 236.242 238.613 236.242 238.8C236.269 238.96 236.175 239.186 235.962 239.48C235.135 240.466 234.269 240.96 233.362 240.96C232.055 240.96 231.002 240 230.202 238.08C229.375 239.973 228.202 241.613 226.682 243C225.162 244.36 223.655 245.04 222.162 245.04C220.749 245.04 220.042 243.973 220.042 241.84C220.042 240.16 221.602 237.066 224.722 232.56C227.869 228.053 230.269 225.8 231.922 225.8C232.269 225.8 232.575 225.906 232.842 226.12C233.135 226.333 233.282 226.586 233.282 226.88C233.282 226.853 233.082 227.053 232.682 227.48C232.309 227.906 231.255 229.053 229.522 230.92C227.815 232.786 226.135 234.84 224.482 237.08C222.829 239.32 222.002 241.053 222.002 242.28C222.002 242.6 222.082 242.946 222.242 243.32C222.429 243.693 222.722 243.88 223.122 243.88C224.295 243.88 225.669 242.973 227.242 241.16C228.549 239.56 229.349 238.213 229.642 237.12C229.455 236.56 229.362 235.866 229.362 235.04ZM232.611 249.64C233.891 251.24 234.998 252.04 235.931 252.04C237.451 252.04 239.091 250.826 240.851 248.4C242.131 246.613 243.385 244.36 244.611 241.64L246.131 237.96L240.251 242.56C238.438 243.973 236.985 244.68 235.891 244.68C235.305 244.68 234.838 244.48 234.491 244.08C234.145 243.68 233.971 243.226 233.971 242.72C233.971 241.573 234.958 239.693 236.931 237.08C238.905 234.44 240.345 233.12 241.251 233.12C242.158 233.12 242.611 233.426 242.611 234.04C242.611 234.28 241.425 235.666 239.051 238.2C236.705 240.706 235.531 242.4 235.531 243.28C235.531 243.626 235.758 243.8 236.211 243.8C237.065 243.8 238.771 242.8 241.331 240.8C243.918 238.8 245.865 237.146 247.171 235.84C247.465 235.493 247.878 234.973 248.411 234.28C248.918 233.693 249.478 233.4 250.091 233.4C250.705 233.4 251.011 233.693 251.011 234.28C251.011 234.386 250.411 235.333 249.211 237.12C248.011 238.906 247.385 239.853 247.331 239.96C246.505 241.56 245.238 243.893 243.531 246.96C240.945 251.12 238.358 253.2 235.771 253.2C234.918 253.2 234.171 252.826 233.531 252.08C232.891 251.36 232.585 250.546 232.611 249.64ZM298.156 205.88C298.156 207.533 297.676 208.36 296.716 208.36C296.449 208.36 296.182 208.146 295.916 207.72C295.436 206.866 294.636 206.44 293.516 206.44C291.062 206.44 288.769 208.2 286.636 211.72C286.209 212.413 284.876 214.92 282.636 219.24H283.596C289.409 219.24 293.276 219.16 295.196 219C295.409 219.053 295.516 219.16 295.516 219.32C295.516 219.746 293.622 220.333 289.836 221.08C286.262 221.666 283.329 222.173 281.036 222.6C279.382 226.013 277.382 230.066 275.036 234.76C270.236 243.72 267.062 249.293 265.516 251.48C260.876 258.093 256.342 261.4 251.916 261.4C250.369 261.4 249.036 260.733 247.916 259.4C246.742 258.12 246.129 256.68 246.076 255.08C246.236 254.44 246.476 254.12 246.796 254.12C246.956 254.12 247.062 254.306 247.116 254.68C247.436 256.066 247.969 257.133 248.716 257.88C249.462 258.626 250.236 259 251.036 259C255.569 259 259.702 256.2 263.436 250.6C265.569 247.4 268.476 241.64 272.156 233.32L276.476 222.92C271.142 222.866 268.476 222.226 268.476 221C268.476 220.466 268.716 220.013 269.196 219.64C269.729 219.266 270.182 219.08 270.556 219.08L278.076 219.24C283.302 207.613 288.102 201.8 292.476 201.8C294.129 201.8 295.809 202.6 297.516 204.2C297.942 204.626 298.156 205.186 298.156 205.88ZM293.571 228.68C293.971 228.68 294.344 228.813 294.691 229.08C295.064 229.32 295.251 229.613 295.251 229.96C295.251 230.306 295.077 230.613 294.731 230.88C294.411 231.12 294.051 231.24 293.651 231.24C293.251 231.24 292.877 231.093 292.531 230.8C292.211 230.506 292.051 230.173 292.051 229.8C292.051 229.053 292.557 228.68 293.571 228.68ZM286.331 245.44C284.971 245.44 284.291 244.56 284.291 242.8C284.291 241.36 285.077 239.373 286.651 236.84C288.224 234.28 289.491 232.986 290.451 232.96C290.717 232.96 291.011 233.066 291.331 233.28C291.677 233.493 291.851 233.706 291.851 233.92C291.717 234.106 291.557 234.32 291.371 234.56C291.184 234.773 290.984 235.013 290.771 235.28C290.557 235.546 290.264 235.933 289.891 236.44C289.517 236.92 289.157 237.386 288.811 237.84C286.811 240.426 285.811 242.213 285.811 243.2C285.811 244.16 286.144 244.64 286.811 244.64C287.371 244.64 288.131 244.333 289.091 243.72C291.331 242.333 293.104 240.813 294.411 239.16C294.891 238.546 295.211 238.24 295.371 238.24C295.557 238.24 295.651 238.346 295.651 238.56C295.651 238.773 295.344 239.2 294.731 239.84C294.117 240.48 293.624 240.986 293.251 241.36C292.904 241.733 292.664 241.986 292.531 242.12C292.397 242.226 292.144 242.453 291.771 242.8C291.424 243.12 291.157 243.346 290.971 243.48C290.784 243.613 290.517 243.813 290.171 244.08C289.824 244.346 289.517 244.546 289.251 244.68C288.984 244.786 288.677 244.92 288.331 245.08C287.771 245.32 287.104 245.44 286.331 245.44ZM303.034 235.04C303.034 233.226 303.594 232.32 304.714 232.32C304.821 232.32 304.941 232.333 305.074 232.36C305.527 232.44 305.754 232.786 305.754 233.4C305.754 234.013 305.647 234.786 305.434 235.72C305.221 236.413 305.074 236.933 304.994 237.28C305.074 237.733 305.287 238.32 305.634 239.04C306.007 239.733 306.501 240.08 307.114 240.08C307.754 240.08 308.461 239.653 309.234 238.8C309.394 238.613 309.541 238.52 309.674 238.52C309.834 238.52 309.914 238.613 309.914 238.8C309.941 238.96 309.847 239.186 309.634 239.48C308.807 240.466 307.941 240.96 307.034 240.96C305.727 240.96 304.674 240 303.874 238.08C303.047 239.973 301.874 241.613 300.354 243C298.834 244.36 297.327 245.04 295.834 245.04C294.421 245.04 293.714 243.973 293.714 241.84C293.714 240.16 295.274 237.066 298.394 232.56C301.541 228.053 303.941 225.8 305.594 225.8C305.941 225.8 306.247 225.906 306.514 226.12C306.807 226.333 306.954 226.586 306.954 226.88C306.954 226.853 306.754 227.053 306.354 227.48C305.981 227.906 304.927 229.053 303.194 230.92C301.487 232.786 299.807 234.84 298.154 237.08C296.501 239.32 295.674 241.053 295.674 242.28C295.674 242.6 295.754 242.946 295.914 243.32C296.101 243.693 296.394 243.88 296.794 243.88C297.967 243.88 299.341 242.973 300.914 241.16C302.221 239.56 303.021 238.213 303.314 237.12C303.127 236.56 303.034 235.866 303.034 235.04ZM316.683 245.2C314.683 245.2 313.683 244.093 313.683 241.88C313.683 240.76 313.977 239.533 314.563 238.2C315.15 236.866 315.79 235.746 316.483 234.84C316.35 234.866 316.177 234.88 315.963 234.88C315.323 234.88 314.79 234.426 314.363 233.52L311.403 237.36C309.75 239.413 308.79 240.44 308.523 240.44C308.39 240.44 308.323 240.386 308.323 240.28C308.323 240.013 308.55 239.626 309.003 239.12C311.323 236.426 312.963 234.146 313.923 232.28C314.537 229.96 315.31 228.8 316.243 228.8C316.857 228.8 317.163 229.066 317.163 229.6C317.163 230.133 316.83 230.813 316.163 231.64L315.203 232.92C315.203 233.48 315.617 233.76 316.443 233.76C316.923 233.76 317.457 233.586 318.043 233.24L319.083 232.6C319.137 232.573 319.27 232.56 319.483 232.56C319.697 232.56 319.923 232.693 320.163 232.96C320.403 233.226 320.483 233.466 320.403 233.68L317.643 237.16C315.937 239.346 315.083 241.08 315.083 242.36C315.083 243.613 315.67 244.24 316.843 244.24C318.07 244.24 319.577 243.586 321.363 242.28C322.43 241.506 323.403 240.64 324.283 239.68C325.11 238.72 325.563 238.24 325.643 238.24C325.83 238.24 325.923 238.346 325.923 238.56C325.923 238.746 325.803 238.973 325.563 239.24L324.283 240.68C323.563 241.426 322.763 242.146 321.883 242.84C319.777 244.413 318.043 245.2 316.683 245.2ZM332.946 228.68C333.346 228.68 333.719 228.813 334.066 229.08C334.439 229.32 334.626 229.613 334.626 229.96C334.626 230.306 334.452 230.613 334.106 230.88C333.786 231.12 333.426 231.24 333.026 231.24C332.626 231.24 332.252 231.093 331.906 230.8C331.586 230.506 331.426 230.173 331.426 229.8C331.426 229.053 331.932 228.68 332.946 228.68ZM325.706 245.44C324.346 245.44 323.666 244.56 323.666 242.8C323.666 241.36 324.452 239.373 326.026 236.84C327.599 234.28 328.866 232.986 329.826 232.96C330.092 232.96 330.386 233.066 330.706 233.28C331.052 233.493 331.226 233.706 331.226 233.92C331.092 234.106 330.932 234.32 330.746 234.56C330.559 234.773 330.359 235.013 330.146 235.28C329.932 235.546 329.639 235.933 329.266 236.44C328.892 236.92 328.532 237.386 328.186 237.84C326.186 240.426 325.186 242.213 325.186 243.2C325.186 244.16 325.519 244.64 326.186 244.64C326.746 244.64 327.506 244.333 328.466 243.72C330.706 242.333 332.479 240.813 333.786 239.16C334.266 238.546 334.586 238.24 334.746 238.24C334.932 238.24 335.026 238.346 335.026 238.56C335.026 238.773 334.719 239.2 334.106 239.84C333.492 240.48 332.999 240.986 332.626 241.36C332.279 241.733 332.039 241.986 331.906 242.12C331.772 242.226 331.519 242.453 331.146 242.8C330.799 243.12 330.532 243.346 330.346 243.48C330.159 243.613 329.892 243.813 329.546 244.08C329.199 244.346 328.892 244.546 328.626 244.68C328.359 244.786 328.052 244.92 327.706 245.08C327.146 245.32 326.479 245.44 325.706 245.44ZM336.329 245.52C336.036 245.52 335.769 245.48 335.529 245.4C333.822 244.92 332.969 243.96 332.969 242.52C332.969 240.653 334.142 238.493 336.489 236.04C338.836 233.586 340.942 232.36 342.809 232.36C343.422 232.36 343.916 232.533 344.289 232.88C344.689 233.2 344.889 233.653 344.889 234.24C344.889 234.8 344.716 235.4 344.369 236.04C344.022 236.653 343.502 236.96 342.809 236.96C342.116 236.96 341.769 236.746 341.769 236.32C341.769 236.026 341.942 235.586 342.289 235C342.662 234.386 342.849 234.066 342.849 234.04C342.849 233.986 342.809 233.96 342.729 233.96C341.982 234.04 340.956 234.573 339.649 235.56C338.369 236.546 337.489 237.373 337.009 238.04L335.449 240.32C335.182 240.746 334.982 241.253 334.849 241.84C334.742 242.426 334.689 242.866 334.689 243.16C334.689 243.453 334.849 243.786 335.169 244.16C335.516 244.533 335.996 244.72 336.609 244.72C337.942 244.72 339.596 243.946 341.569 242.4C343.542 240.826 345.062 239.333 346.129 237.92C346.262 237.76 346.422 237.68 346.609 237.68C346.796 237.68 346.889 237.733 346.889 237.84C346.889 237.946 346.822 238.08 346.689 238.24C345.222 240.186 343.462 241.893 341.409 243.36C339.382 244.8 337.689 245.52 336.329 245.52Z" fill="url(#paint1_linear)"/>
<g opacity="0.25" filter="url(#filter1_f)">
<path d="M45.0608 57.9091V57.0909L44.2426 57.9091H29.379V167H45.0608V123.364H62.9244C87.6063 123.364 96.7426 116 96.7426 90.6364C96.7426 67.0455 87.6063 57.9091 62.9244 57.9091H45.0608ZM45.0608 108.909V72.3636H62.9244C77.379 72.3636 81.0608 76.3182 81.0608 90.6364C81.0608 106.727 77.379 108.909 62.9244 108.909H45.0608ZM142.082 168.909C167.309 168.909 175.9 156.091 175.9 124.864C175.9 93.6364 167.309 80.8182 142.082 80.8182C116.855 80.8182 108.4 93.6364 108.4 124.864C108.4 156.091 116.855 168.909 142.082 168.909ZM142.082 154.455C128.173 154.455 124.082 147.636 124.082 124.864C124.082 102.091 128.173 95.2727 142.082 95.2727C155.991 95.2727 160.218 102.091 160.218 124.864C160.218 147.636 155.991 154.455 142.082 154.455ZM238.012 168.909C246.467 168.909 251.785 166.864 259.83 160.318L251.103 146.955C244.421 152.682 241.285 154.455 238.012 154.455C231.33 154.455 229.149 150.364 229.149 137.682V57.9091H196.285V72.3636H213.467V137.682C213.467 161.409 219.33 168.909 238.012 168.909ZM306.942 70.4545C316.079 70.4545 318.942 67.7273 318.942 59.2727C318.942 50.8182 316.079 48.0909 306.942 48.0909C297.806 48.0909 295.079 50.8182 295.079 59.2727C295.079 67.7273 297.806 70.4545 306.942 70.4545ZM317.306 82.7273H284.442V97.1818H301.624V152.545H277.761V167H341.17V152.545H317.306V82.7273ZM384.327 168.909C412.282 168.909 422.645 161.409 422.645 142.455C422.645 124.182 413.782 118.864 388.964 115.318C376.964 113.682 372.327 112.727 372.327 106.182C372.327 97.7273 375.736 95.2727 391.145 95.2727C402.464 95.2727 405.054 97.7273 410.509 108.091L421.964 96.9091C414.736 84.9091 407.236 80.8182 391.145 80.8182C365.918 80.8182 356.645 88.0455 356.645 106.182C356.645 121.864 366.873 127.455 387.873 130.045C403.554 132.091 406.827 133.045 406.827 142.455C406.827 151.591 402.873 154.455 384.327 154.455C374.373 154.455 371.918 151.727 366.873 140.136L354.464 150.364C361.554 164 369.054 168.909 384.327 168.909Z" fill="url(#paint2_linear)"/>
</g>
<path d="M49.0608 53.9091V53.0909L48.2426 53.9091H33.379V163H49.0608V119.364H66.9244C91.6063 119.364 100.743 112 100.743 86.6364C100.743 63.0455 91.6063 53.9091 66.9244 53.9091H49.0608ZM49.0608 104.909V68.3636H66.9244C81.379 68.3636 85.0608 72.3182 85.0608 86.6364C85.0608 102.727 81.379 104.909 66.9244 104.909H49.0608ZM146.082 164.909C171.309 164.909 179.9 152.091 179.9 120.864C179.9 89.6364 171.309 76.8182 146.082 76.8182C120.855 76.8182 112.4 89.6364 112.4 120.864C112.4 152.091 120.855 164.909 146.082 164.909ZM146.082 150.455C132.173 150.455 128.082 143.636 128.082 120.864C128.082 98.0909 132.173 91.2727 146.082 91.2727C159.991 91.2727 164.218 98.0909 164.218 120.864C164.218 143.636 159.991 150.455 146.082 150.455ZM242.012 164.909C250.467 164.909 255.785 162.864 263.83 156.318L255.103 142.955C248.421 148.682 245.285 150.455 242.012 150.455C235.33 150.455 233.149 146.364 233.149 133.682V53.9091H200.285V68.3636H217.467V133.682C217.467 157.409 223.33 164.909 242.012 164.909ZM310.942 66.4545C320.079 66.4545 322.942 63.7273 322.942 55.2727C322.942 46.8182 320.079 44.0909 310.942 44.0909C301.806 44.0909 299.079 46.8182 299.079 55.2727C299.079 63.7273 301.806 66.4545 310.942 66.4545ZM321.306 78.7273H288.442V93.1818H305.624V148.545H281.761V163H345.17V148.545H321.306V78.7273ZM388.327 164.909C416.282 164.909 426.645 157.409 426.645 138.455C426.645 120.182 417.782 114.864 392.964 111.318C380.964 109.682 376.327 108.727 376.327 102.182C376.327 93.7273 379.736 91.2727 395.145 91.2727C406.464 91.2727 409.054 93.7273 414.509 104.091L425.964 92.9091C418.736 80.9091 411.236 76.8182 395.145 76.8182C369.918 76.8182 360.645 84.0455 360.645 102.182C360.645 117.864 370.873 123.455 391.873 126.045C407.554 128.091 410.827 129.045 410.827 138.455C410.827 147.591 406.873 150.455 388.327 150.455C378.373 150.455 375.918 147.727 370.873 136.136L358.464 146.364C365.554 160 373.054 164.909 388.327 164.909Z" fill="url(#paint3_linear)"/>
<defs>
<filter id="filter0_f" x="212.042" y="201.8" width="134.847" height="67.6" filterUnits="userSpaceOnUse" color-interpolation-filters="sRGB">
<feFlood flood-opacity="0" result="BackgroundImageFix"/>
<feBlend mode="normal" in="SourceGraphic" in2="BackgroundImageFix" result="shape"/>
<feGaussianBlur stdDeviation="2" result="effect1_foregroundBlur"/>
</filter>
<filter id="filter1_f" x="25.379" y="44.0909" width="401.266" height="128.818" filterUnits="userSpaceOnUse" color-interpolation-filters="sRGB">
<feFlood flood-opacity="0" result="BackgroundImageFix"/>
<feBlend mode="normal" in="SourceGraphic" in2="BackgroundImageFix" result="shape"/>
<feGaussianBlur stdDeviation="2" result="effect1_foregroundBlur"/>
</filter>
<linearGradient id="paint0_linear" x1="270.5" y1="183" x2="270.5" y2="283" gradientUnits="userSpaceOnUse">
<stop stop-color="#4A9EFF"/>
<stop offset="1" stop-color="#344055"/>
<stop offset="1" stop-color="#161C23"/>
</linearGradient>
<linearGradient id="paint1_linear" x1="274.5" y1="179" x2="274.5" y2="279" gradientUnits="userSpaceOnUse">
<stop stop-color="#4A9EFF"/>
<stop offset="1" stop-color="#344055"/>
<stop offset="1" stop-color="#161C23"/>
</linearGradient>
<linearGradient id="paint2_linear" x1="448" y1="109" x2="-7.82284e-05" y2="109" gradientUnits="userSpaceOnUse">
<stop stop-color="#FF453A"/>
<stop offset="0.166667" stop-color="#FCD755"/>
<stop offset="0.333333" stop-color="#FF9F0A"/>
<stop offset="0.5" stop-color="#3FD747"/>
<stop offset="0.666667" stop-color="#3DFAFF"/>
<stop offset="0.833333" stop-color="#0A84FF"/>
<stop offset="1" stop-color="#BF5AF2"/>
</linearGradient>
<linearGradient id="paint3_linear" x1="452" y1="105" x2="3.99992" y2="105" gradientUnits="userSpaceOnUse">
<stop stop-color="#FF453A"/>
<stop offset="0.166667" stop-color="#FCD755"/>
<stop offset="0.333333" stop-color="#FF9F0A"/>
<stop offset="0.5" stop-color="#3FD747"/>
<stop offset="0.666667" stop-color="#3DFAFF"/>
<stop offset="0.833333" stop-color="#0A84FF"/>
<stop offset="1" stop-color="#BF5AF2"/>
</linearGradient>
</defs>
</svg>
