<svg width="448" height="279" viewBox="0 0 448 279" fill="none" xmlns="http://www.w3.org/2000/svg">
<g filter="url(#filter0_di)">
<path d="M229.362 235.04C229.362 233.227 229.922 232.32 231.042 232.32C231.149 232.32 231.269 232.333 231.402 232.36C231.856 232.44 232.082 232.787 232.082 233.4C232.082 234.013 231.976 234.787 231.762 235.72C231.549 236.413 231.402 236.933 231.322 237.28C231.402 237.733 231.616 238.32 231.962 239.04C232.336 239.733 232.829 240.08 233.442 240.08C234.082 240.08 234.789 239.653 235.562 238.8C235.722 238.613 235.869 238.52 236.002 238.52C236.162 238.52 236.242 238.613 236.242 238.8C236.269 238.96 236.176 239.187 235.962 239.48C235.136 240.467 234.269 240.96 233.362 240.96C232.056 240.96 231.002 240 230.202 238.08C229.376 239.973 228.202 241.613 226.682 243C225.162 244.36 223.656 245.04 222.162 245.04C220.749 245.04 220.042 243.973 220.042 241.84C220.042 240.16 221.602 237.067 224.722 232.56C227.869 228.053 230.269 225.8 231.922 225.8C232.269 225.8 232.576 225.907 232.842 226.12C233.136 226.333 233.282 226.587 233.282 226.88C233.282 226.853 233.082 227.053 232.682 227.48C232.309 227.907 231.256 229.053 229.522 230.92C227.816 232.787 226.136 234.84 224.482 237.08C222.829 239.32 222.002 241.053 222.002 242.28C222.002 242.6 222.082 242.947 222.242 243.32C222.429 243.693 222.722 243.88 223.122 243.88C224.296 243.88 225.669 242.973 227.242 241.16C228.549 239.56 229.349 238.213 229.642 237.12C229.456 236.56 229.362 235.867 229.362 235.04ZM232.612 249.64C233.892 251.24 234.998 252.04 235.932 252.04C237.452 252.04 239.092 250.827 240.852 248.4C242.132 246.613 243.385 244.36 244.612 241.64L246.132 237.96L240.252 242.56C238.438 243.973 236.985 244.68 235.892 244.68C235.305 244.68 234.838 244.48 234.492 244.08C234.145 243.68 233.972 243.227 233.972 242.72C233.972 241.573 234.958 239.693 236.932 237.08C238.905 234.44 240.345 233.12 241.252 233.12C242.158 233.12 242.612 233.427 242.612 234.04C242.612 234.28 241.425 235.667 239.052 238.2C236.705 240.707 235.532 242.4 235.532 243.28C235.532 243.627 235.758 243.8 236.212 243.8C237.065 243.8 238.772 242.8 241.332 240.8C243.918 238.8 245.865 237.147 247.172 235.84C247.465 235.493 247.878 234.973 248.412 234.28C248.918 233.693 249.478 233.4 250.092 233.4C250.705 233.4 251.012 233.693 251.012 234.28C251.012 234.387 250.412 235.333 249.212 237.12C248.012 238.907 247.385 239.853 247.332 239.96C246.505 241.56 245.238 243.893 243.532 246.96C240.945 251.12 238.358 253.2 235.772 253.2C234.918 253.2 234.172 252.827 233.532 252.08C232.892 251.36 232.585 250.547 232.612 249.64ZM298.156 205.88C298.156 207.533 297.676 208.36 296.716 208.36C296.449 208.36 296.182 208.147 295.916 207.72C295.436 206.867 294.636 206.44 293.516 206.44C291.062 206.44 288.769 208.2 286.636 211.72C286.209 212.413 284.876 214.92 282.636 219.24H283.596C289.409 219.24 293.276 219.16 295.196 219C295.409 219.053 295.516 219.16 295.516 219.32C295.516 219.747 293.622 220.333 289.836 221.08C286.262 221.667 283.329 222.173 281.036 222.6C279.382 226.013 277.382 230.067 275.036 234.76C270.236 243.72 267.062 249.293 265.516 251.48C260.876 258.093 256.342 261.4 251.916 261.4C250.369 261.4 249.036 260.733 247.916 259.4C246.742 258.12 246.129 256.68 246.076 255.08C246.236 254.44 246.476 254.12 246.796 254.12C246.956 254.12 247.062 254.307 247.116 254.68C247.436 256.067 247.969 257.133 248.716 257.88C249.462 258.627 250.236 259 251.036 259C255.569 259 259.702 256.2 263.436 250.6C265.569 247.4 268.476 241.64 272.156 233.32L276.476 222.92C271.142 222.867 268.476 222.227 268.476 221C268.476 220.467 268.716 220.013 269.196 219.64C269.729 219.267 270.182 219.08 270.556 219.08L278.076 219.24C283.302 207.613 288.102 201.8 292.476 201.8C294.129 201.8 295.809 202.6 297.516 204.2C297.942 204.627 298.156 205.187 298.156 205.88ZM293.571 228.68C293.971 228.68 294.344 228.813 294.691 229.08C295.064 229.32 295.251 229.613 295.251 229.96C295.251 230.307 295.077 230.613 294.731 230.88C294.411 231.12 294.051 231.24 293.651 231.24C293.251 231.24 292.877 231.093 292.531 230.8C292.211 230.507 292.051 230.173 292.051 229.8C292.051 229.053 292.557 228.68 293.571 228.68ZM286.331 245.44C284.971 245.44 284.291 244.56 284.291 242.8C284.291 241.36 285.077 239.373 286.651 236.84C288.224 234.28 289.491 232.987 290.451 232.96C290.717 232.96 291.011 233.067 291.331 233.28C291.677 233.493 291.851 233.707 291.851 233.92C291.717 234.107 291.557 234.32 291.371 234.56C291.184 234.773 290.984 235.013 290.771 235.28C290.557 235.547 290.264 235.933 289.891 236.44C289.517 236.92 289.157 237.387 288.811 237.84C286.811 240.427 285.811 242.213 285.811 243.2C285.811 244.16 286.144 244.64 286.811 244.64C287.371 244.64 288.131 244.333 289.091 243.72C291.331 242.333 293.104 240.813 294.411 239.16C294.891 238.547 295.211 238.24 295.371 238.24C295.557 238.24 295.651 238.347 295.651 238.56C295.651 238.773 295.344 239.2 294.731 239.84C294.117 240.48 293.624 240.987 293.251 241.36C292.904 241.733 292.664 241.987 292.531 242.12C292.397 242.227 292.144 242.453 291.771 242.8C291.424 243.12 291.157 243.347 290.971 243.48C290.784 243.613 290.517 243.813 290.171 244.08C289.824 244.347 289.517 244.547 289.251 244.68C288.984 244.787 288.677 244.92 288.331 245.08C287.771 245.32 287.104 245.44 286.331 245.44ZM303.034 235.04C303.034 233.227 303.594 232.32 304.714 232.32C304.821 232.32 304.941 232.333 305.074 232.36C305.527 232.44 305.754 232.787 305.754 233.4C305.754 234.013 305.647 234.787 305.434 235.72C305.221 236.413 305.074 236.933 304.994 237.28C305.074 237.733 305.287 238.32 305.634 239.04C306.007 239.733 306.501 240.08 307.114 240.08C307.754 240.08 308.461 239.653 309.234 238.8C309.394 238.613 309.541 238.52 309.674 238.52C309.834 238.52 309.914 238.613 309.914 238.8C309.941 238.96 309.847 239.187 309.634 239.48C308.807 240.467 307.941 240.96 307.034 240.96C305.727 240.96 304.674 240 303.874 238.08C303.047 239.973 301.874 241.613 300.354 243C298.834 244.36 297.327 245.04 295.834 245.04C294.421 245.04 293.714 243.973 293.714 241.84C293.714 240.16 295.274 237.067 298.394 232.56C301.541 228.053 303.941 225.8 305.594 225.8C305.941 225.8 306.247 225.907 306.514 226.12C306.807 226.333 306.954 226.587 306.954 226.88C306.954 226.853 306.754 227.053 306.354 227.48C305.981 227.907 304.927 229.053 303.194 230.92C301.487 232.787 299.807 234.84 298.154 237.08C296.501 239.32 295.674 241.053 295.674 242.28C295.674 242.6 295.754 242.947 295.914 243.32C296.101 243.693 296.394 243.88 296.794 243.88C297.967 243.88 299.341 242.973 300.914 241.16C302.221 239.56 303.021 238.213 303.314 237.12C303.127 236.56 303.034 235.867 303.034 235.04ZM316.683 245.2C314.683 245.2 313.683 244.093 313.683 241.88C313.683 240.76 313.977 239.533 314.563 238.2C315.15 236.867 315.79 235.747 316.483 234.84C316.35 234.867 316.177 234.88 315.963 234.88C315.323 234.88 314.79 234.427 314.363 233.52L311.403 237.36C309.75 239.413 308.79 240.44 308.523 240.44C308.39 240.44 308.323 240.387 308.323 240.28C308.323 240.013 308.55 239.627 309.003 239.12C311.323 236.427 312.963 234.147 313.923 232.28C314.537 229.96 315.31 228.8 316.243 228.8C316.857 228.8 317.163 229.067 317.163 229.6C317.163 230.133 316.83 230.813 316.163 231.64L315.203 232.92C315.203 233.48 315.617 233.76 316.443 233.76C316.923 233.76 317.457 233.587 318.043 233.24L319.083 232.6C319.137 232.573 319.27 232.56 319.483 232.56C319.697 232.56 319.923 232.693 320.163 232.96C320.403 233.227 320.483 233.467 320.403 233.68L317.643 237.16C315.937 239.347 315.083 241.08 315.083 242.36C315.083 243.613 315.67 244.24 316.843 244.24C318.07 244.24 319.577 243.587 321.363 242.28C322.43 241.507 323.403 240.64 324.283 239.68C325.11 238.72 325.563 238.24 325.643 238.24C325.83 238.24 325.923 238.347 325.923 238.56C325.923 238.747 325.803 238.973 325.563 239.24L324.283 240.68C323.563 241.427 322.763 242.147 321.883 242.84C319.777 244.413 318.043 245.2 316.683 245.2ZM332.946 228.68C333.346 228.68 333.719 228.813 334.066 229.08C334.439 229.32 334.626 229.613 334.626 229.96C334.626 230.307 334.452 230.613 334.106 230.88C333.786 231.12 333.426 231.24 333.026 231.24C332.626 231.24 332.252 231.093 331.906 230.8C331.586 230.507 331.426 230.173 331.426 229.8C331.426 229.053 331.932 228.68 332.946 228.68ZM325.706 245.44C324.346 245.44 323.666 244.56 323.666 242.8C323.666 241.36 324.452 239.373 326.026 236.84C327.599 234.28 328.866 232.987 329.826 232.96C330.092 232.96 330.386 233.067 330.706 233.28C331.052 233.493 331.226 233.707 331.226 233.92C331.092 234.107 330.932 234.32 330.746 234.56C330.559 234.773 330.359 235.013 330.146 235.28C329.932 235.547 329.639 235.933 329.266 236.44C328.892 236.92 328.532 237.387 328.186 237.84C326.186 240.427 325.186 242.213 325.186 243.2C325.186 244.16 325.519 244.64 326.186 244.64C326.746 244.64 327.506 244.333 328.466 243.72C330.706 242.333 332.479 240.813 333.786 239.16C334.266 238.547 334.586 238.24 334.746 238.24C334.932 238.24 335.026 238.347 335.026 238.56C335.026 238.773 334.719 239.2 334.106 239.84C333.492 240.48 332.999 240.987 332.626 241.36C332.279 241.733 332.039 241.987 331.906 242.12C331.772 242.227 331.519 242.453 331.146 242.8C330.799 243.12 330.532 243.347 330.346 243.48C330.159 243.613 329.892 243.813 329.546 244.08C329.199 244.347 328.892 244.547 328.626 244.68C328.359 244.787 328.052 244.92 327.706 245.08C327.146 245.32 326.479 245.44 325.706 245.44ZM336.329 245.52C336.036 245.52 335.769 245.48 335.529 245.4C333.822 244.92 332.969 243.96 332.969 242.52C332.969 240.653 334.142 238.493 336.489 236.04C338.836 233.587 340.942 232.36 342.809 232.36C343.422 232.36 343.916 232.533 344.289 232.88C344.689 233.2 344.889 233.653 344.889 234.24C344.889 234.8 344.716 235.4 344.369 236.04C344.022 236.653 343.502 236.96 342.809 236.96C342.116 236.96 341.769 236.747 341.769 236.32C341.769 236.027 341.942 235.587 342.289 235C342.662 234.387 342.849 234.067 342.849 234.04C342.849 233.987 342.809 233.96 342.729 233.96C341.982 234.04 340.956 234.573 339.649 235.56C338.369 236.547 337.489 237.373 337.009 238.04L335.449 240.32C335.182 240.747 334.982 241.253 334.849 241.84C334.742 242.427 334.689 242.867 334.689 243.16C334.689 243.453 334.849 243.787 335.169 244.16C335.516 244.533 335.996 244.72 336.609 244.72C337.942 244.72 339.596 243.947 341.569 242.4C343.542 240.827 345.062 239.333 346.129 237.92C346.262 237.76 346.422 237.68 346.609 237.68C346.796 237.68 346.889 237.733 346.889 237.84C346.889 237.947 346.822 238.08 346.689 238.24C345.222 240.187 343.462 241.893 341.409 243.36C339.382 244.8 337.689 245.52 336.329 245.52Z" fill="#344055"/>
</g>
<g filter="url(#filter1_di)">
<path d="M45.0609 53.909V53.0908L44.2427 53.909H29.3791V163H45.0609V119.364H62.9245C87.6063 119.364 96.7427 112 96.7427 86.6362C96.7427 63.0453 87.6063 53.909 62.9245 53.909H45.0609ZM45.0609 104.909V68.3635H62.9245C77.3791 68.3635 81.0609 72.3181 81.0609 86.6362C81.0609 102.727 77.3791 104.909 62.9245 104.909H45.0609ZM142.082 164.909C167.309 164.909 175.9 152.091 175.9 120.864C175.9 89.6362 167.309 76.8181 142.082 76.8181C116.855 76.8181 108.4 89.6362 108.4 120.864C108.4 152.091 116.855 164.909 142.082 164.909ZM142.082 150.454C128.173 150.454 124.082 143.636 124.082 120.864C124.082 98.0908 128.173 91.2726 142.082 91.2726C155.991 91.2726 160.218 98.0908 160.218 120.864C160.218 143.636 155.991 150.454 142.082 150.454ZM238.012 164.909C246.467 164.909 251.785 162.864 259.83 156.318L251.103 142.954C244.421 148.682 241.285 150.454 238.012 150.454C231.33 150.454 229.149 146.364 229.149 133.682V53.909H196.285V68.3635H213.467V133.682C213.467 157.409 219.33 164.909 238.012 164.909ZM306.942 66.4544C316.079 66.4544 318.942 63.7271 318.942 55.2726C318.942 46.8181 316.079 44.0908 306.942 44.0908C297.806 44.0908 295.079 46.8181 295.079 55.2726C295.079 63.7271 297.806 66.4544 306.942 66.4544ZM317.306 78.7272H284.442V93.1817H301.624V148.545H277.761V163H341.17V148.545H317.306V78.7272ZM384.327 164.909C412.282 164.909 422.645 157.409 422.645 138.454C422.645 120.182 413.782 114.864 388.964 111.318C376.964 109.682 372.327 108.727 372.327 102.182C372.327 93.7271 375.736 91.2726 391.145 91.2726C402.464 91.2726 405.054 93.7271 410.509 104.091L421.964 92.909C414.736 80.909 407.236 76.8181 391.145 76.8181C365.918 76.8181 356.645 84.0453 356.645 102.182C356.645 117.864 366.873 123.454 387.873 126.045C403.554 128.091 406.827 129.045 406.827 138.454C406.827 147.591 402.873 150.454 384.327 150.454C374.373 150.454 371.918 147.727 366.873 136.136L354.464 146.364C361.554 160 369.054 164.909 384.327 164.909Z" fill="url(#paint0_linear)"/>
</g>
<defs>
<filter id="filter0_di" x="216.042" y="201.8" width="134.847" height="67.6" filterUnits="userSpaceOnUse" color-interpolation-filters="sRGB">
<feFlood flood-opacity="0" result="BackgroundImageFix"/>
<feColorMatrix in="SourceAlpha" type="matrix" values="0 0 0 0 0 0 0 0 0 0 0 0 0 0 0 0 0 0 127 0"/>
<feOffset dy="4"/>
<feGaussianBlur stdDeviation="2"/>
<feColorMatrix type="matrix" values="0 0 0 0 0 0 0 0 0 0 0 0 0 0 0 0 0 0 0.25 0"/>
<feBlend mode="normal" in2="BackgroundImageFix" result="effect1_dropShadow"/>
<feBlend mode="normal" in="SourceGraphic" in2="effect1_dropShadow" result="shape"/>
<feColorMatrix in="SourceAlpha" type="matrix" values="0 0 0 0 0 0 0 0 0 0 0 0 0 0 0 0 0 0 127 0" result="hardAlpha"/>
<feOffset/>
<feGaussianBlur stdDeviation="4"/>
<feComposite in2="hardAlpha" operator="arithmetic" k2="-1" k3="1"/>
<feColorMatrix type="matrix" values="0 0 0 0 0.12549 0 0 0 0 0.168627 0 0 0 0 0.192157 0 0 0 0.25 0"/>
<feBlend mode="normal" in2="shape" result="effect2_innerShadow"/>
</filter>
<filter id="filter1_di" x="21.3791" y="36.0908" width="409.266" height="136.818" filterUnits="userSpaceOnUse" color-interpolation-filters="sRGB">
<feFlood flood-opacity="0" result="BackgroundImageFix"/>
<feColorMatrix in="SourceAlpha" type="matrix" values="0 0 0 0 0 0 0 0 0 0 0 0 0 0 0 0 0 0 127 0"/>
<feOffset/>
<feGaussianBlur stdDeviation="4"/>
<feColorMatrix type="matrix" values="0 0 0 0 0.0313726 0 0 0 0 0.0431373 0 0 0 0 0.0588235 0 0 0 0.33 0"/>
<feBlend mode="normal" in2="BackgroundImageFix" result="effect1_dropShadow"/>
<feBlend mode="normal" in="SourceGraphic" in2="effect1_dropShadow" result="shape"/>
<feColorMatrix in="SourceAlpha" type="matrix" values="0 0 0 0 0 0 0 0 0 0 0 0 0 0 0 0 0 0 127 0" result="hardAlpha"/>
<feOffset dy="4"/>
<feGaussianBlur stdDeviation="2"/>
<feComposite in2="hardAlpha" operator="arithmetic" k2="-1" k3="1"/>
<feColorMatrix type="matrix" values="0 0 0 0 0.0313726 0 0 0 0 0.0431373 0 0 0 0 0.0588235 0 0 0 0.25 0"/>
<feBlend mode="normal" in2="shape" result="effect2_innerShadow"/>
</filter>
<linearGradient id="paint0_linear" x1="448" y1="105" x2="-1.33786e-05" y2="105" gradientUnits="userSpaceOnUse">
<stop stop-color="#FF453A"/>
<stop offset="0.166667" stop-color="#FCD755"/>
<stop offset="0.333333" stop-color="#FF9F0A"/>
<stop offset="0.5" stop-color="#3FD747"/>
<stop offset="0.666667" stop-color="#3DFAFF"/>
<stop offset="0.833333" stop-color="#0A84FF"/>
<stop offset="1" stop-color="#BF5AF2"/>
</linearGradient>
</defs>
</svg>
