<svg width="512" height="512" viewBox="0 0 512 512" fill="none" xmlns="http://www.w3.org/2000/svg">
<g filter="url(#filter0_i)">
<circle cx="248" cy="248" r="228" fill="url(#paint0_linear)"/>
<circle cx="268" cy="268" r="224" fill="#161C23"/>
</g>
<g filter="url(#filter1_di)">
<path d="M89.0609 215.909V215.091L88.2427 215.909H73.3791V325H89.0609V281.364H106.925C131.606 281.364 140.743 274 140.743 248.636C140.743 225.045 131.606 215.909 106.925 215.909H89.0609ZM89.0609 266.909V230.364H106.925C121.379 230.364 125.061 234.318 125.061 248.636C125.061 264.727 121.379 266.909 106.925 266.909H89.0609ZM186.082 326.909C211.309 326.909 219.9 314.091 219.9 282.864C219.9 251.636 211.309 238.818 186.082 238.818C160.855 238.818 152.4 251.636 152.4 282.864C152.4 314.091 160.855 326.909 186.082 326.909ZM186.082 312.454C172.173 312.454 168.082 305.636 168.082 282.864C168.082 260.091 172.173 253.273 186.082 253.273C199.991 253.273 204.218 260.091 204.218 282.864C204.218 305.636 199.991 312.454 186.082 312.454ZM282.012 326.909C290.467 326.909 295.785 324.864 303.83 318.318L295.103 304.954C288.421 310.682 285.285 312.454 282.012 312.454C275.33 312.454 273.149 308.364 273.149 295.682V215.909H240.285V230.364H257.467V295.682C257.467 319.409 263.33 326.909 282.012 326.909ZM350.942 228.454C360.079 228.454 362.942 225.727 362.942 217.273C362.942 208.818 360.079 206.091 350.942 206.091C341.806 206.091 339.079 208.818 339.079 217.273C339.079 225.727 341.806 228.454 350.942 228.454ZM361.306 240.727H328.442V255.182H345.624V310.545H321.761V325H385.17V310.545H361.306V240.727ZM428.327 326.909C456.282 326.909 466.645 319.409 466.645 300.454C466.645 282.182 457.782 276.864 432.964 273.318C420.964 271.682 416.327 270.727 416.327 264.182C416.327 255.727 419.736 253.273 435.145 253.273C446.464 253.273 449.054 255.727 454.509 266.091L465.964 254.909C458.736 242.909 451.236 238.818 435.145 238.818C409.918 238.818 400.645 246.045 400.645 264.182C400.645 279.864 410.873 285.454 431.873 288.045C447.554 290.091 450.827 291.045 450.827 300.454C450.827 309.591 446.873 312.454 428.327 312.454C418.373 312.454 415.918 309.727 410.873 298.136L398.464 308.364C405.554 322 413.054 326.909 428.327 326.909Z" fill="url(#paint1_linear)"/>
</g>
<g filter="url(#filter2_di)">
<path d="M273.362 397.04C273.362 395.227 273.922 394.32 275.042 394.32C275.149 394.32 275.269 394.333 275.402 394.36C275.856 394.44 276.082 394.787 276.082 395.4C276.082 396.013 275.976 396.787 275.762 397.72C275.549 398.413 275.402 398.933 275.322 399.28C275.402 399.733 275.616 400.32 275.962 401.04C276.336 401.733 276.829 402.08 277.442 402.08C278.082 402.08 278.789 401.653 279.562 400.8C279.722 400.613 279.869 400.52 280.002 400.52C280.162 400.52 280.242 400.613 280.242 400.8C280.269 400.96 280.176 401.187 279.962 401.48C279.136 402.467 278.269 402.96 277.362 402.96C276.056 402.96 275.002 402 274.202 400.08C273.376 401.973 272.202 403.613 270.682 405C269.162 406.36 267.656 407.04 266.162 407.04C264.749 407.04 264.042 405.973 264.042 403.84C264.042 402.16 265.602 399.067 268.722 394.56C271.869 390.053 274.269 387.8 275.922 387.8C276.269 387.8 276.576 387.907 276.842 388.12C277.136 388.333 277.282 388.587 277.282 388.88C277.282 388.853 277.082 389.053 276.682 389.48C276.309 389.907 275.256 391.053 273.522 392.92C271.816 394.787 270.136 396.84 268.482 399.08C266.829 401.32 266.002 403.053 266.002 404.28C266.002 404.6 266.082 404.947 266.242 405.32C266.429 405.693 266.722 405.88 267.122 405.88C268.296 405.88 269.669 404.973 271.242 403.16C272.549 401.56 273.349 400.213 273.642 399.12C273.456 398.56 273.362 397.867 273.362 397.04ZM276.612 411.64C277.892 413.24 278.998 414.04 279.932 414.04C281.452 414.04 283.092 412.827 284.852 410.4C286.132 408.613 287.385 406.36 288.612 403.64L290.132 399.96L284.252 404.56C282.438 405.973 280.985 406.68 279.892 406.68C279.305 406.68 278.838 406.48 278.492 406.08C278.145 405.68 277.972 405.227 277.972 404.72C277.972 403.573 278.958 401.693 280.932 399.08C282.905 396.44 284.345 395.12 285.252 395.12C286.158 395.12 286.612 395.427 286.612 396.04C286.612 396.28 285.425 397.667 283.052 400.2C280.705 402.707 279.532 404.4 279.532 405.28C279.532 405.627 279.758 405.8 280.212 405.8C281.065 405.8 282.772 404.8 285.332 402.8C287.918 400.8 289.865 399.147 291.172 397.84C291.465 397.493 291.878 396.973 292.412 396.28C292.918 395.693 293.478 395.4 294.092 395.4C294.705 395.4 295.012 395.693 295.012 396.28C295.012 396.387 294.412 397.333 293.212 399.12C292.012 400.907 291.385 401.853 291.332 401.96C290.505 403.56 289.238 405.893 287.532 408.96C284.945 413.12 282.358 415.2 279.772 415.2C278.918 415.2 278.172 414.827 277.532 414.08C276.892 413.36 276.585 412.547 276.612 411.64ZM342.156 367.88C342.156 369.533 341.676 370.36 340.716 370.36C340.449 370.36 340.182 370.147 339.916 369.72C339.436 368.867 338.636 368.44 337.516 368.44C335.062 368.44 332.769 370.2 330.636 373.72C330.209 374.413 328.876 376.92 326.636 381.24H327.596C333.409 381.24 337.276 381.16 339.196 381C339.409 381.053 339.516 381.16 339.516 381.32C339.516 381.747 337.622 382.333 333.836 383.08C330.262 383.667 327.329 384.173 325.036 384.6C323.382 388.013 321.382 392.067 319.036 396.76C314.236 405.72 311.062 411.293 309.516 413.48C304.876 420.093 300.342 423.4 295.916 423.4C294.369 423.4 293.036 422.733 291.916 421.4C290.742 420.12 290.129 418.68 290.076 417.08C290.236 416.44 290.476 416.12 290.796 416.12C290.956 416.12 291.062 416.307 291.116 416.68C291.436 418.067 291.969 419.133 292.716 419.88C293.462 420.627 294.236 421 295.036 421C299.569 421 303.702 418.2 307.436 412.6C309.569 409.4 312.476 403.64 316.156 395.32L320.476 384.92C315.142 384.867 312.476 384.227 312.476 383C312.476 382.467 312.716 382.013 313.196 381.64C313.729 381.267 314.182 381.08 314.556 381.08L322.076 381.24C327.302 369.613 332.102 363.8 336.476 363.8C338.129 363.8 339.809 364.6 341.516 366.2C341.942 366.627 342.156 367.187 342.156 367.88ZM337.571 390.68C337.971 390.68 338.344 390.813 338.691 391.08C339.064 391.32 339.251 391.613 339.251 391.96C339.251 392.307 339.077 392.613 338.731 392.88C338.411 393.12 338.051 393.24 337.651 393.24C337.251 393.24 336.877 393.093 336.531 392.8C336.211 392.507 336.051 392.173 336.051 391.8C336.051 391.053 336.557 390.68 337.571 390.68ZM330.331 407.44C328.971 407.44 328.291 406.56 328.291 404.8C328.291 403.36 329.077 401.373 330.651 398.84C332.224 396.28 333.491 394.987 334.451 394.96C334.717 394.96 335.011 395.067 335.331 395.28C335.677 395.493 335.851 395.707 335.851 395.92C335.717 396.107 335.557 396.32 335.371 396.56C335.184 396.773 334.984 397.013 334.771 397.28C334.557 397.547 334.264 397.933 333.891 398.44C333.517 398.92 333.157 399.387 332.811 399.84C330.811 402.427 329.811 404.213 329.811 405.2C329.811 406.16 330.144 406.64 330.811 406.64C331.371 406.64 332.131 406.333 333.091 405.72C335.331 404.333 337.104 402.813 338.411 401.16C338.891 400.547 339.211 400.24 339.371 400.24C339.557 400.24 339.651 400.347 339.651 400.56C339.651 400.773 339.344 401.2 338.731 401.84C338.117 402.48 337.624 402.987 337.251 403.36C336.904 403.733 336.664 403.987 336.531 404.12C336.397 404.227 336.144 404.453 335.771 404.8C335.424 405.12 335.157 405.347 334.971 405.48C334.784 405.613 334.517 405.813 334.171 406.08C333.824 406.347 333.517 406.547 333.251 406.68C332.984 406.787 332.677 406.92 332.331 407.08C331.771 407.32 331.104 407.44 330.331 407.44ZM347.034 397.04C347.034 395.227 347.594 394.32 348.714 394.32C348.821 394.32 348.941 394.333 349.074 394.36C349.527 394.44 349.754 394.787 349.754 395.4C349.754 396.013 349.647 396.787 349.434 397.72C349.221 398.413 349.074 398.933 348.994 399.28C349.074 399.733 349.287 400.32 349.634 401.04C350.007 401.733 350.501 402.08 351.114 402.08C351.754 402.08 352.461 401.653 353.234 400.8C353.394 400.613 353.541 400.52 353.674 400.52C353.834 400.52 353.914 400.613 353.914 400.8C353.941 400.96 353.847 401.187 353.634 401.48C352.807 402.467 351.941 402.96 351.034 402.96C349.727 402.96 348.674 402 347.874 400.08C347.047 401.973 345.874 403.613 344.354 405C342.834 406.36 341.327 407.04 339.834 407.04C338.421 407.04 337.714 405.973 337.714 403.84C337.714 402.16 339.274 399.067 342.394 394.56C345.541 390.053 347.941 387.8 349.594 387.8C349.941 387.8 350.247 387.907 350.514 388.12C350.807 388.333 350.954 388.587 350.954 388.88C350.954 388.853 350.754 389.053 350.354 389.48C349.981 389.907 348.927 391.053 347.194 392.92C345.487 394.787 343.807 396.84 342.154 399.08C340.501 401.32 339.674 403.053 339.674 404.28C339.674 404.6 339.754 404.947 339.914 405.32C340.101 405.693 340.394 405.88 340.794 405.88C341.967 405.88 343.341 404.973 344.914 403.16C346.221 401.56 347.021 400.213 347.314 399.12C347.127 398.56 347.034 397.867 347.034 397.04ZM360.683 407.2C358.683 407.2 357.683 406.093 357.683 403.88C357.683 402.76 357.977 401.533 358.563 400.2C359.15 398.867 359.79 397.747 360.483 396.84C360.35 396.867 360.177 396.88 359.963 396.88C359.323 396.88 358.79 396.427 358.363 395.52L355.403 399.36C353.75 401.413 352.79 402.44 352.523 402.44C352.39 402.44 352.323 402.387 352.323 402.28C352.323 402.013 352.55 401.627 353.003 401.12C355.323 398.427 356.963 396.147 357.923 394.28C358.537 391.96 359.31 390.8 360.243 390.8C360.857 390.8 361.163 391.067 361.163 391.6C361.163 392.133 360.83 392.813 360.163 393.64L359.203 394.92C359.203 395.48 359.617 395.76 360.443 395.76C360.923 395.76 361.457 395.587 362.043 395.24L363.083 394.6C363.137 394.573 363.27 394.56 363.483 394.56C363.697 394.56 363.923 394.693 364.163 394.96C364.403 395.227 364.483 395.467 364.403 395.68L361.643 399.16C359.937 401.347 359.083 403.08 359.083 404.36C359.083 405.613 359.67 406.24 360.843 406.24C362.07 406.24 363.577 405.587 365.363 404.28C366.43 403.507 367.403 402.64 368.283 401.68C369.11 400.72 369.563 400.24 369.643 400.24C369.83 400.24 369.923 400.347 369.923 400.56C369.923 400.747 369.803 400.973 369.563 401.24L368.283 402.68C367.563 403.427 366.763 404.147 365.883 404.84C363.777 406.413 362.043 407.2 360.683 407.2ZM376.946 390.68C377.346 390.68 377.719 390.813 378.066 391.08C378.439 391.32 378.626 391.613 378.626 391.96C378.626 392.307 378.452 392.613 378.106 392.88C377.786 393.12 377.426 393.24 377.026 393.24C376.626 393.24 376.252 393.093 375.906 392.8C375.586 392.507 375.426 392.173 375.426 391.8C375.426 391.053 375.932 390.68 376.946 390.68ZM369.706 407.44C368.346 407.44 367.666 406.56 367.666 404.8C367.666 403.36 368.452 401.373 370.026 398.84C371.599 396.28 372.866 394.987 373.826 394.96C374.092 394.96 374.386 395.067 374.706 395.28C375.052 395.493 375.226 395.707 375.226 395.92C375.092 396.107 374.932 396.32 374.746 396.56C374.559 396.773 374.359 397.013 374.146 397.28C373.932 397.547 373.639 397.933 373.266 398.44C372.892 398.92 372.532 399.387 372.186 399.84C370.186 402.427 369.186 404.213 369.186 405.2C369.186 406.16 369.519 406.64 370.186 406.64C370.746 406.64 371.506 406.333 372.466 405.72C374.706 404.333 376.479 402.813 377.786 401.16C378.266 400.547 378.586 400.24 378.746 400.24C378.932 400.24 379.026 400.347 379.026 400.56C379.026 400.773 378.719 401.2 378.106 401.84C377.492 402.48 376.999 402.987 376.626 403.36C376.279 403.733 376.039 403.987 375.906 404.12C375.772 404.227 375.519 404.453 375.146 404.8C374.799 405.12 374.532 405.347 374.346 405.48C374.159 405.613 373.892 405.813 373.546 406.08C373.199 406.347 372.892 406.547 372.626 406.68C372.359 406.787 372.052 406.92 371.706 407.08C371.146 407.32 370.479 407.44 369.706 407.44ZM380.329 407.52C380.036 407.52 379.769 407.48 379.529 407.4C377.822 406.92 376.969 405.96 376.969 404.52C376.969 402.653 378.142 400.493 380.489 398.04C382.836 395.587 384.942 394.36 386.809 394.36C387.422 394.36 387.916 394.533 388.289 394.88C388.689 395.2 388.889 395.653 388.889 396.24C388.889 396.8 388.716 397.4 388.369 398.04C388.022 398.653 387.502 398.96 386.809 398.96C386.116 398.96 385.769 398.747 385.769 398.32C385.769 398.027 385.942 397.587 386.289 397C386.662 396.387 386.849 396.067 386.849 396.04C386.849 395.987 386.809 395.96 386.729 395.96C385.982 396.04 384.956 396.573 383.649 397.56C382.369 398.547 381.489 399.373 381.009 400.04L379.449 402.32C379.182 402.747 378.982 403.253 378.849 403.84C378.742 404.427 378.689 404.867 378.689 405.16C378.689 405.453 378.849 405.787 379.169 406.16C379.516 406.533 379.996 406.72 380.609 406.72C381.942 406.72 383.596 405.947 385.569 404.4C387.542 402.827 389.062 401.333 390.129 399.92C390.262 399.76 390.422 399.68 390.609 399.68C390.796 399.68 390.889 399.733 390.889 399.84C390.889 399.947 390.822 400.08 390.689 400.24C389.222 402.187 387.462 403.893 385.409 405.36C383.382 406.8 381.689 407.52 380.329 407.52Z" fill="#344055"/>
</g>
<defs>
<filter id="filter0_i" x="20" y="20" width="472" height="472" filterUnits="userSpaceOnUse" color-interpolation-filters="sRGB">
<feFlood flood-opacity="0" result="BackgroundImageFix"/>
<feBlend mode="normal" in="SourceGraphic" in2="BackgroundImageFix" result="shape"/>
<feColorMatrix in="SourceAlpha" type="matrix" values="0 0 0 0 0 0 0 0 0 0 0 0 0 0 0 0 0 0 127 0" result="hardAlpha"/>
<feOffset/>
<feGaussianBlur stdDeviation="4"/>
<feComposite in2="hardAlpha" operator="arithmetic" k2="-1" k3="1"/>
<feColorMatrix type="matrix" values="0 0 0 0 0.12549 0 0 0 0 0.168627 0 0 0 0 0.192157 0 0 0 0.25 0"/>
<feBlend mode="normal" in2="shape" result="effect1_innerShadow"/>
</filter>
<filter id="filter1_di" x="65.3791" y="198.091" width="409.266" height="136.818" filterUnits="userSpaceOnUse" color-interpolation-filters="sRGB">
<feFlood flood-opacity="0" result="BackgroundImageFix"/>
<feColorMatrix in="SourceAlpha" type="matrix" values="0 0 0 0 0 0 0 0 0 0 0 0 0 0 0 0 0 0 127 0"/>
<feOffset/>
<feGaussianBlur stdDeviation="4"/>
<feColorMatrix type="matrix" values="0 0 0 0 0.937255 0 0 0 0 0.913725 0 0 0 0 0.956863 0 0 0 0.25 0"/>
<feBlend mode="normal" in2="BackgroundImageFix" result="effect1_dropShadow"/>
<feBlend mode="normal" in="SourceGraphic" in2="effect1_dropShadow" result="shape"/>
<feColorMatrix in="SourceAlpha" type="matrix" values="0 0 0 0 0 0 0 0 0 0 0 0 0 0 0 0 0 0 127 0" result="hardAlpha"/>
<feOffset/>
<feGaussianBlur stdDeviation="4"/>
<feComposite in2="hardAlpha" operator="arithmetic" k2="-1" k3="1"/>
<feColorMatrix type="matrix" values="0 0 0 0 0.12549 0 0 0 0 0.168627 0 0 0 0 0.192157 0 0 0 0.25 0"/>
<feBlend mode="normal" in2="shape" result="effect2_innerShadow"/>
</filter>
<filter id="filter2_di" x="260.042" y="363.8" width="134.847" height="67.6" filterUnits="userSpaceOnUse" color-interpolation-filters="sRGB">
<feFlood flood-opacity="0" result="BackgroundImageFix"/>
<feColorMatrix in="SourceAlpha" type="matrix" values="0 0 0 0 0 0 0 0 0 0 0 0 0 0 0 0 0 0 127 0"/>
<feOffset dy="4"/>
<feGaussianBlur stdDeviation="2"/>
<feColorMatrix type="matrix" values="0 0 0 0 0 0 0 0 0 0 0 0 0 0 0 0 0 0 0.25 0"/>
<feBlend mode="normal" in2="BackgroundImageFix" result="effect1_dropShadow"/>
<feBlend mode="normal" in="SourceGraphic" in2="effect1_dropShadow" result="shape"/>
<feColorMatrix in="SourceAlpha" type="matrix" values="0 0 0 0 0 0 0 0 0 0 0 0 0 0 0 0 0 0 127 0" result="hardAlpha"/>
<feOffset/>
<feGaussianBlur stdDeviation="4"/>
<feComposite in2="hardAlpha" operator="arithmetic" k2="-1" k3="1"/>
<feColorMatrix type="matrix" values="0 0 0 0 0.12549 0 0 0 0 0.168627 0 0 0 0 0.192157 0 0 0 0.25 0"/>
<feBlend mode="normal" in2="shape" result="effect2_innerShadow"/>
</filter>
<linearGradient id="paint0_linear" x1="476" y1="248" x2="20" y2="248" gradientUnits="userSpaceOnUse">
<stop stop-color="#FF453A"/>
<stop offset="0.166667" stop-color="#FFD60A"/>
<stop offset="0.333333" stop-color="#FF9F0A"/>
<stop offset="0.5" stop-color="#3FD747"/>
<stop offset="0.666667" stop-color="#3DFAFF"/>
<stop offset="0.833333" stop-color="#0A84FF"/>
<stop offset="1" stop-color="#BF5AF2"/>
</linearGradient>
<linearGradient id="paint1_linear" x1="492" y1="267.5" x2="44.0001" y2="267.5" gradientUnits="userSpaceOnUse">
<stop stop-color="#FF453A"/>
<stop offset="0.166667" stop-color="#FFD60A"/>
<stop offset="0.333333" stop-color="#FF9F0A"/>
<stop offset="0.5" stop-color="#3FD747"/>
<stop offset="0.666667" stop-color="#3DFAFF"/>
<stop offset="0.833333" stop-color="#0A84FF"/>
<stop offset="1" stop-color="#BF5AF2"/>
</linearGradient>
</defs>
</svg>
