<svg width="490" height="216" viewBox="0 0 490 216" fill="none" xmlns="http://www.w3.org/2000/svg">
<g filter="url(#filter0_i)">
<path d="M406.186 149.271C404.262 145.942 406.671 141.777 410.523 141.775L434.79 141.765C438.642 141.763 441.048 145.925 439.12 149.257L426.977 170.246C425.05 173.578 420.235 173.58 418.31 170.25L406.186 149.271Z" fill="#840042"/>
</g>
<g filter="url(#filter1_i)">
<path d="M342.271 150.269C340.346 146.939 342.755 142.775 346.607 142.773L370.875 142.762C374.727 142.761 377.132 146.923 375.205 150.255L363.062 171.244C361.134 174.575 356.319 174.577 354.395 171.248L342.271 150.269Z" fill="#003287"/>
</g>
<g filter="url(#filter2_i)">
<path d="M278.286 149.906C276.362 146.576 278.771 142.412 282.623 142.41L306.89 142.399C310.742 142.397 313.148 146.56 311.22 149.891L299.077 170.881C297.15 174.212 292.335 174.214 290.41 170.884L278.286 149.906Z" fill="#007C87"/>
</g>
<g filter="url(#filter3_i)">
<path d="M214.302 149.906C212.377 146.576 214.787 142.412 218.639 142.41L242.906 142.399C246.758 142.397 249.164 146.56 247.236 149.891L235.093 170.881C233.165 174.212 228.351 174.214 226.426 170.884L214.302 149.906Z" fill="#188400"/>
</g>
<g filter="url(#filter4_i)">
<path d="M150.317 149.906C148.393 146.576 150.802 142.412 154.654 142.41L178.922 142.399C182.773 142.397 185.179 146.56 183.252 149.891L171.109 170.881C169.181 174.212 164.366 174.214 162.442 170.884L150.317 149.906Z" fill="#847A00"/>
</g>
<g filter="url(#filter5_i)">
<path d="M86.333 149.906C84.4085 146.576 86.8178 142.412 90.6698 142.41L114.937 142.399C118.789 142.397 121.195 146.56 119.267 149.891L107.124 170.881C105.197 174.212 100.382 174.214 98.4573 170.884L86.333 149.906Z" fill="#844400"/>
</g>
<g filter="url(#filter6_i)">
<path d="M22.3487 149.906C20.4242 146.576 22.8335 142.412 26.6855 142.41L50.9529 142.399C54.8049 142.397 57.2105 146.56 55.283 149.891L43.1399 170.881C41.2125 174.212 36.3975 174.214 34.473 170.884L22.3487 149.906Z" fill="#840700"/>
</g>
<g filter="url(#filter7_i)">
<path d="M421.49 93.5341C423.604 91.7639 426.753 92.0393 428.527 94.1498L451.179 121.089C452.959 123.206 452.683 126.365 450.562 128.141L423.576 150.737C421.462 152.507 418.314 152.232 416.54 150.122L393.887 123.182C392.108 121.066 392.384 117.906 394.504 116.131L421.49 93.5341Z" fill="#FF2486"/>
</g>
<g filter="url(#filter8_i)">
<path d="M359.346 94.5318C361.461 92.7616 364.609 93.037 366.383 95.1475L389.035 122.087C390.815 124.203 390.539 127.363 388.419 129.138L361.433 151.735C359.319 153.505 356.17 153.23 354.396 151.119L331.744 124.18C329.964 122.063 330.24 118.904 332.361 117.128L359.346 94.5318Z" fill="#2970FF"/>
</g>
<g filter="url(#filter9_i)">
<path d="M295.362 94.1687C297.476 92.3985 300.624 92.6739 302.399 94.7844L325.051 121.724C326.831 123.84 326.554 127 324.434 128.775L297.448 151.372C295.334 153.142 292.186 152.867 290.411 150.756L267.759 123.817C265.979 121.7 266.256 118.541 268.376 116.765L295.362 94.1687Z" fill="#29DBFF"/>
</g>
<g filter="url(#filter10_i)">
<path d="M231.378 94.1687C233.492 92.3985 236.64 92.6739 238.414 94.7844L261.067 121.724C262.846 123.84 262.57 127 260.45 128.775L233.464 151.372C231.35 153.142 228.201 152.867 226.427 150.756L203.775 123.817C201.995 121.7 202.271 118.541 204.392 116.765L231.378 94.1687Z" fill="#48FF24"/>
</g>
<g filter="url(#filter11_i)">
<path d="M167.393 94.1687C169.507 92.3985 172.655 92.6739 174.43 94.7844L197.082 121.724C198.862 123.84 198.586 127 196.465 128.775L169.479 151.372C167.365 153.142 164.217 152.867 162.442 150.756L139.79 123.817C138.011 121.7 138.287 118.541 140.407 116.765L167.393 94.1687Z" fill="#FFDA24"/>
</g>
<g filter="url(#filter12_i)">
<path d="M103.409 94.1687C105.523 92.3985 108.671 92.6739 110.446 94.7844L133.098 121.724C134.878 123.84 134.601 127 132.481 128.775L105.495 151.372C103.381 153.142 100.233 152.867 98.4581 150.756L75.806 123.817C74.0262 121.7 74.3026 118.541 76.4229 116.765L103.409 94.1687Z" fill="#FF8A24"/>
</g>
<g filter="url(#filter13_i)">
<path d="M39.4244 94.1687C41.5386 92.3985 44.6867 92.6739 46.4613 94.7844L69.1135 121.724C70.8932 123.84 70.6168 127 68.4965 128.775L41.5106 151.372C39.3965 153.142 36.2483 152.867 34.4737 150.756L11.8216 123.817C10.0418 121.7 10.3182 118.541 12.4385 116.765L39.4244 94.1687Z" fill="#FF2F24"/>
</g>
<g filter="url(#filter14_i)">
<path d="M402.234 85.3891C402.009 83.2366 403.197 81.1826 405.178 80.3013L424.334 71.779C426.314 70.8977 428.637 71.3897 430.087 72.9975L444.108 88.5469C445.558 90.1547 445.805 92.5128 444.72 94.3877L434.23 112.52C433.145 114.395 430.975 115.36 428.855 114.911L408.351 110.568C406.23 110.119 404.642 108.358 404.416 106.206L402.234 85.3891Z" fill="#F990BF"/>
</g>
<path d="M436.868 50.0204L435.91 50.9759L434.036 48.5511L432.862 49.7224L434.736 52.1472L433.305 53.5754L431.431 51.1506L430.247 52.3321L432.121 54.757L430.865 56.0105L431.956 57.0996L433.068 55.9899L434.592 57.9626L433.49 59.062L434.582 60.1511L435.539 59.1956L437.413 61.6204L438.587 60.4491L436.713 58.0243L438.144 56.5961L440.018 59.0209L441.202 57.8393L439.328 55.4145L440.595 54.1508L439.503 53.0616L438.381 54.1816L436.857 52.2089L437.959 51.1095L436.868 50.0204ZM435.766 56.7913L434.252 54.8083L435.683 53.3802L437.197 55.3632L435.766 56.7913ZM446.648 35.965L441.614 40.9892L449.85 49.2089L451.034 48.0273L447.698 44.6984L450.159 42.2427L449.068 41.1536L446.607 43.6093L443.889 40.8968L447.74 37.0541L446.648 35.965ZM452.831 29.7952L447.796 34.8195L456.033 43.0391L457.217 41.8576L453.881 38.5286L456.342 36.073L455.25 34.9839L452.79 37.4395L450.071 34.727L453.922 30.8843L452.831 29.7952ZM467.26 31.8348L466.169 30.7457L461.999 34.9069C461.196 33.078 463.79 28.3312 461.227 25.7728C459.507 24.0569 458.179 24.17 456.182 26.1632C454.092 28.249 454.092 29.6052 456.13 31.4752L457.314 30.2936C456.007 29.112 455.945 28.5778 457.273 27.2523C458.509 26.0194 459.044 25.9577 460.043 26.9544C462.112 29.0196 458.776 34.1158 461.093 36.4276L461.875 37.2084L467.26 31.8348ZM472.732 26.374L470.652 24.2985L471.414 23.5382L470.323 22.4491L469.561 23.2094L464.496 18.1543L463.507 19.1407L465.062 28.172L465.916 29.0248L469.468 25.4801L471.548 27.5556L472.732 26.374ZM465.69 21.7093L468.377 24.391L466.359 26.4048L465.69 21.7093ZM477.082 22.3208C479.1 20.307 479.131 18.8788 477.319 17.0705C476.197 15.9505 475.486 15.6937 474.426 15.8889C474.498 15.0566 474.261 14.4915 473.345 13.5771C471.718 11.9537 470.39 11.9845 468.557 13.8134C466.725 15.6423 466.704 16.9574 468.331 18.5808C469.247 19.4953 469.803 19.7419 470.637 19.6699C470.441 20.7282 470.709 21.4269 471.831 22.5468C473.643 24.3552 475.064 24.3346 477.082 22.3208ZM472.037 17.2862C470.966 18.3548 470.596 18.4781 469.515 17.3992C468.598 16.4848 468.578 15.9711 469.649 14.9025C470.719 13.834 471.244 13.8442 472.161 14.7587C473.242 15.8375 473.108 16.2177 472.037 17.2862ZM475.991 21.2317C474.735 22.4852 474.117 22.4646 473.015 21.3652C471.749 20.1015 471.872 19.6288 473.128 18.3753C474.385 17.1218 474.868 16.9883 476.135 18.252C477.237 19.3514 477.247 19.9782 475.991 21.2317ZM483.265 16.151C485.241 14.1783 485.169 12.7296 483.182 10.7466C481.03 8.59918 479.723 8.6711 477.746 10.6438C477.108 11.2808 476.727 11.846 476.531 12.37L476.222 12.0617C474.75 10.5925 474.668 9.89378 475.831 8.73275C476.902 7.66419 477.468 7.46898 478.209 8.20875L479.404 7.01689C477.921 5.53735 476.583 5.80449 474.74 7.64364C472.773 9.60609 472.886 11.0959 475.038 13.2433L477.87 16.0688C479.846 18.0415 481.298 18.1135 483.265 16.151ZM482.173 15.0619C481.01 16.2229 480.341 16.1716 479.054 14.8872C477.581 13.418 477.674 12.894 478.837 11.7329C480.001 10.5719 480.536 10.4692 481.998 11.9281C483.295 13.2227 483.337 13.9009 482.173 15.0619Z" fill="#FF2486"/>
<g filter="url(#filter15_i)">
<path d="M338.319 86.3868C338.093 84.2343 339.282 82.1803 341.262 81.299L360.418 72.7767C362.399 71.8954 364.722 72.3874 366.171 73.9952L380.192 89.5445C381.642 91.1524 381.889 93.5105 380.805 95.3854L370.314 113.518C369.23 115.393 367.06 116.358 364.939 115.909L344.435 111.566C342.315 111.117 340.727 109.356 340.501 107.203L338.319 86.3868Z" fill="#95B6F9"/>
</g>
<path d="M372.952 51.0181L371.994 51.9736L370.121 49.5488L368.947 50.7201L370.821 53.1449L369.39 54.5731L367.516 52.1483L366.332 53.3298L368.206 55.7547L366.95 57.0082L368.041 58.0973L369.153 56.9876L370.677 58.9603L369.575 60.0597L370.666 61.1488L371.624 60.1933L373.498 62.6181L374.671 61.4468L372.798 59.022L374.229 57.5938L376.102 60.0186L377.286 58.837L375.413 56.4122L376.679 55.1485L375.588 54.0593L374.465 55.1793L372.942 53.2066L374.043 52.1072L372.952 51.0181ZM371.85 57.789L370.337 55.806L371.768 54.3779L373.281 56.3609L371.85 57.789ZM390.98 45.1721L389.888 44.083L385.718 48.2442C384.915 46.4153 387.51 41.6684 384.946 39.11C383.227 37.3942 381.899 37.5072 379.901 39.5005C377.811 41.5862 377.811 42.9425 379.85 44.8124L381.034 43.6309C379.726 42.4493 379.665 41.915 380.993 40.5896C382.228 39.3566 382.764 39.295 383.762 40.2916C385.832 42.3568 382.496 47.453 384.812 49.7648L385.595 50.5457L390.98 45.1721ZM394.619 41.8278C396.596 39.8551 396.483 38.3653 394.331 36.2179L391.499 33.3924C389.523 31.4196 388.071 31.3477 386.094 33.3204C384.128 35.2829 384.2 36.7316 386.187 38.7146C388.339 40.862 389.646 40.7901 391.613 38.8276C392.261 38.1803 392.632 37.6255 392.838 37.0912L393.147 37.3995C394.619 38.8687 394.691 39.5777 393.528 40.7387C392.457 41.8073 391.891 42.0025 391.149 41.2627L389.955 42.4546C391.438 43.9341 392.786 43.6567 394.619 41.8278ZM390.521 37.7385C389.358 38.8995 388.833 38.992 387.371 37.533C386.074 36.2384 386.022 35.5706 387.185 34.4095C388.349 33.2485 389.018 33.2793 390.315 34.5739C391.788 36.0432 391.685 36.5775 390.521 37.7385ZM400.029 36.1409C397.98 32.7811 397.28 29.8221 396.158 25.743L395.067 24.6539L389.734 29.9762L390.825 31.0653L394.83 27.0685C395.963 31.0345 396.807 34.1168 398.814 37.3533L400.029 36.1409ZM406.984 29.4883C408.539 27.9368 407.89 24.9263 405.46 22.5015C403.03 20.0767 400.014 19.4294 398.459 20.9809C396.904 22.5324 397.563 25.5325 399.993 27.9573C402.423 30.3821 405.429 31.0397 406.984 29.4883ZM405.893 28.3991C405.1 29.1903 402.958 28.5533 401.177 26.7758C399.396 24.9983 398.758 22.8611 399.55 22.07C400.343 21.2789 402.485 21.9159 404.266 23.6934C406.047 25.4709 406.685 27.608 405.893 28.3991ZM403.514 26.0257C404.009 25.5325 404.039 24.8441 403.576 24.3818C403.123 23.9297 402.444 23.9708 401.949 24.464C401.455 24.9572 401.424 25.625 401.877 26.0771C402.341 26.5394 403.02 26.5189 403.514 26.0257ZM407.463 12.2836L402.428 17.3078L410.665 25.5275L411.849 24.3459L408.513 21.017L410.974 18.5613L409.882 17.4722L407.421 19.9279L404.703 17.2154L408.554 13.3727L407.463 12.2836ZM413.645 6.11379L408.611 11.1381L416.847 19.3577L418.031 18.1762L414.695 14.8472L417.156 12.3916L416.065 11.3025L413.604 13.7581L410.886 11.0456L414.737 7.2029L413.645 6.11379Z" fill="#2970FF"/>
<g filter="url(#filter16_i)">
<path d="M274.334 86.0236C274.109 83.8711 275.297 81.8171 277.278 80.9359L296.434 72.4135C298.414 71.5323 300.737 72.0242 302.187 73.6321L316.208 89.1814C317.658 90.7893 317.905 93.1473 316.82 95.0223L306.33 113.155C305.245 115.03 303.075 115.995 300.955 115.546L280.451 111.203C278.33 110.754 276.742 108.993 276.516 106.84L274.334 86.0236Z" fill="#95E8F9"/>
</g>
<path d="M308.967 50.6549L308.01 51.6105L306.136 49.1857L304.962 50.357L306.836 52.7818L305.405 54.2099L303.531 51.7851L302.347 52.9667L304.221 55.3915L302.965 56.645L304.056 57.7341L305.168 56.6245L306.692 58.5972L305.59 59.6966L306.682 60.7857L307.639 59.8301L309.513 62.2549L310.687 61.0836L308.813 58.6588L310.244 57.2307L312.118 59.6555L313.302 58.4739L311.428 56.0491L312.694 54.7853L311.603 53.6962L310.481 54.8161L308.957 52.8434L310.059 51.744L308.967 50.6549ZM307.866 57.4259L306.352 55.4429L307.783 54.0147L309.297 55.9977L307.866 57.4259ZM326.995 44.8089L325.904 43.7198L321.734 47.881C320.931 46.0522 323.525 41.3053 320.962 38.7469C319.242 37.0311 317.914 37.1441 315.917 39.1374C313.827 41.2231 313.827 42.5793 315.865 44.4493L317.049 43.2677C315.742 42.0862 315.68 41.5519 317.008 40.2265C318.244 38.9935 318.779 38.9319 319.778 39.9285C321.847 41.9937 318.511 47.0899 320.828 49.4017L321.61 50.1825L326.995 44.8089ZM330.635 41.4647C332.611 39.4919 332.498 38.0021 330.346 35.8547L327.515 33.0292C325.538 31.0565 324.086 30.9846 322.11 32.9573C320.143 34.9198 320.215 36.3685 322.202 38.3515C324.354 40.4989 325.662 40.4269 327.628 38.4645C328.277 37.8172 328.647 37.2624 328.853 36.7281L329.162 37.0363C330.635 38.5056 330.707 39.2145 329.543 40.3756C328.472 41.4441 327.906 41.6393 327.165 40.8996L325.971 42.0914C327.453 43.571 328.802 43.2935 330.635 41.4647ZM326.537 37.3754C325.373 38.5364 324.848 38.6289 323.386 37.1699C322.089 35.8753 322.038 35.2074 323.201 34.0464C324.364 32.8854 325.034 32.9162 326.331 34.2108C327.803 35.6801 327.7 36.2144 326.537 37.3754ZM325.893 29.4692L334.13 37.6889L336.807 35.0175C338.814 33.0139 338.341 31.1851 335.376 28.226C332.41 25.2669 330.578 24.7943 328.57 26.7978L325.893 29.4692ZM334.222 35.4182L328.169 29.3767L329.661 27.8869C330.794 26.7567 331.875 27.0958 334.192 29.4076C336.508 31.7193 336.848 32.7982 335.715 33.9284L334.222 35.4182ZM342.948 28.8888C344.832 27.0086 344.812 25.6523 343.051 23.8954C341.929 22.7754 341.177 22.5186 340.199 22.7549C340.271 21.9843 340.055 21.4192 339.19 20.5561C337.635 19.0046 336.318 19.0663 334.454 20.926L332.168 23.207L340.405 31.4266L342.948 28.8888ZM334.444 23.1145L335.545 22.0151C336.657 20.9054 337.162 20.8952 338.006 21.7377C339.056 22.7857 338.891 23.1556 337.79 24.255L336.688 25.3543L334.444 23.1145ZM337.78 26.4435L339.139 25.0872C340.23 23.9981 340.642 23.8543 341.867 25.0769C342.927 26.1352 342.948 26.7106 341.857 27.7997L340.498 29.1559L337.78 26.4435ZM343.478 11.9204L338.443 16.9447L346.68 25.1644L347.864 23.9828L344.528 20.6538L346.989 18.1982L345.898 17.1091L343.437 19.5647L340.719 16.8522L344.569 13.0095L343.478 11.9204ZM349.661 5.75066L344.626 10.7749L352.863 18.9946L354.047 17.813L350.711 14.4841L353.171 12.0284L352.08 10.9393L349.619 13.395L346.901 10.6825L350.752 6.83977L349.661 5.75066Z" fill="#29DBFF"/>
<g filter="url(#filter17_i)">
<path d="M210.35 86.0236C210.124 83.8711 211.313 81.8171 213.293 80.9359L232.449 72.4135C234.43 71.5323 236.753 72.0242 238.203 73.6321L252.224 89.1814C253.673 90.7893 253.921 93.1473 252.836 95.0223L242.345 113.155C241.261 115.03 239.091 115.995 236.971 115.546L216.466 111.203C214.346 110.754 212.758 108.993 212.532 106.84L210.35 86.0236Z" fill="#A2F990"/>
</g>
<path d="M244.983 50.6549L244.026 51.6105L242.152 49.1857L240.978 50.357L242.852 52.7818L241.421 54.2099L239.547 51.7851L238.363 52.9667L240.237 55.3915L238.981 56.645L240.072 57.7341L241.184 56.6245L242.708 58.5972L241.606 59.6966L242.697 60.7857L243.655 59.8301L245.529 62.255L246.702 61.0836L244.829 58.6588L246.26 57.2307L248.134 59.6555L249.318 58.4739L247.444 56.0491L248.71 54.7853L247.619 53.6962L246.497 54.8161L244.973 52.8434L246.074 51.744L244.983 50.6549ZM243.881 57.4259L242.368 55.4429L243.799 54.0147L245.313 55.9977L243.881 57.4259ZM262.3 45.5179L260.221 43.4424L260.982 42.6821L259.891 41.593L259.129 42.3533L254.064 37.2982L253.075 38.2846L254.63 47.3159L255.485 48.1687L259.037 44.624L261.116 46.6995L262.3 45.5179ZM255.258 40.8532L257.945 43.5349L255.927 45.5487L255.258 40.8532ZM266.65 41.4647C268.668 39.4509 268.699 38.0227 266.887 36.2144C265.765 35.0944 265.054 34.8376 263.994 35.0328C264.066 34.2005 263.829 33.6354 262.913 32.721C261.286 31.0976 259.958 31.1284 258.125 32.9573C256.293 34.7862 256.272 36.1013 257.899 37.7247C258.815 38.6392 259.371 38.8857 260.205 38.8138C260.009 39.8721 260.277 40.5708 261.399 41.6907C263.211 43.499 264.632 43.4785 266.65 41.4647ZM261.605 36.4301C260.534 37.4987 260.164 37.622 259.083 36.5431C258.166 35.6287 258.146 35.115 259.217 34.0464C260.287 32.9779 260.812 32.9881 261.729 33.9026C262.81 34.9814 262.676 35.3616 261.605 36.4301ZM265.559 40.3756C264.303 41.6291 263.685 41.6085 262.583 40.5091C261.317 39.2454 261.441 38.7727 262.697 37.5192C263.953 36.2657 264.437 36.1322 265.703 37.3959C266.805 38.4953 266.815 39.1221 265.559 40.3756ZM267.129 24.26L262.094 29.2843L270.331 37.5039L271.515 36.3224L268.179 32.9934L270.64 30.5378L269.548 29.4487L267.088 31.9043L264.37 29.1918L268.22 25.3491L267.129 24.26ZM273.311 18.0902L268.277 23.1145L276.513 31.3342L277.697 30.1526L274.361 26.8236L276.822 24.368L275.731 23.2789L273.27 25.7345L270.552 23.022L274.403 19.1793L273.311 18.0902ZM287.741 20.1298L286.649 19.0407L282.48 23.2019C281.676 21.3731 284.271 16.6262 281.707 14.0678C279.988 12.352 278.66 12.465 276.662 14.4583C274.572 16.544 274.572 17.9003 276.611 19.7702L277.795 18.5886C276.487 17.4071 276.426 16.8728 277.754 15.5474C278.989 14.3144 279.525 14.2528 280.523 15.2494C282.593 17.3146 279.257 22.4108 281.574 24.7226L282.356 25.5035L287.741 20.1298ZM293.213 14.669L291.133 12.5935L291.895 11.8332L290.804 10.7441L290.042 11.5044L284.976 6.44934L283.988 7.4357L285.542 16.4671L286.397 17.3199L289.949 13.7751L292.029 15.8506L293.213 14.669ZM286.17 10.0043L288.858 12.686L286.84 14.6998L286.17 10.0043Z" fill="#48FF24"/>
<g filter="url(#filter18_i)">
<path d="M146.366 86.0236C146.14 83.8711 147.328 81.8171 149.309 80.9359L168.465 72.4135C170.446 71.5323 172.768 72.0242 174.218 73.6321L188.239 89.1814C189.689 90.7893 189.936 93.1473 188.851 95.0223L178.361 113.155C177.276 115.03 175.106 115.995 172.986 115.546L152.482 111.203C150.362 110.754 148.773 108.993 148.548 106.84L146.366 86.0236Z" fill="#F9E790"/>
</g>
<path d="M180.999 50.6549L180.041 51.6105L178.167 49.1857L176.994 50.357L178.867 52.7818L177.436 54.2099L175.563 51.7851L174.378 52.9667L176.252 55.3915L174.996 56.645L176.088 57.7341L177.2 56.6245L178.723 58.5972L177.622 59.6966L178.713 60.7857L179.671 59.8301L181.544 62.255L182.718 61.0836L180.844 58.6588L182.275 57.2307L184.149 59.6555L185.333 58.4739L183.459 56.0491L184.726 54.7853L183.634 53.6962L182.512 54.8161L180.988 52.8434L182.09 51.744L180.999 50.6549ZM179.897 57.4259L178.384 55.4429L179.815 54.0147L181.328 55.9977L179.897 57.4259ZM190.779 36.5995L185.745 41.6238L193.981 49.8435L195.165 48.6619L191.83 45.3329L194.29 42.8773L193.199 41.7882L190.738 44.2438L188.02 41.5313L191.871 37.6886L190.779 36.5995ZM196.962 30.4298L191.927 35.454L200.164 43.6737L201.348 42.4921L198.012 39.1632L200.473 36.7075L199.381 35.6184L196.921 38.0741L194.203 35.3616L198.053 31.5189L196.962 30.4298ZM197.924 29.4692L206.161 37.6889L208.838 35.0175C210.846 33.0139 210.372 31.1851 207.407 28.226C204.442 25.2669 202.609 24.7943 200.601 26.7978L197.924 29.4692ZM206.254 35.4182L200.2 29.3767L201.693 27.8869C202.825 26.7567 203.906 27.0958 206.223 29.4076C208.539 31.7193 208.879 32.7982 207.747 33.9284L206.254 35.4182ZM217.811 26.0633L207.278 20.1349L206.032 21.3781L211.963 31.8993L213.188 30.6766L211.798 28.2415L214.145 25.8989L216.585 27.286L217.811 26.0633ZM208.678 22.7857L212.755 25.1078L211.005 26.8544L208.678 22.7857ZM223.756 20.1298L222.665 19.0407L218.495 23.2019C217.692 21.3731 220.287 16.6262 217.723 14.0678C216.004 12.352 214.675 12.465 212.678 14.4583C210.588 16.544 210.588 17.9003 212.627 19.7702L213.811 18.5886C212.503 17.4071 212.441 16.8728 213.769 15.5474C215.005 14.3144 215.54 14.2528 216.539 15.2494C218.608 17.3146 215.273 22.4108 217.589 24.7226L218.372 25.5035L223.756 20.1298ZM229.228 14.669L227.149 12.5935L227.911 11.8332L226.819 10.7441L226.057 11.5044L220.992 6.44934L220.003 7.4357L221.558 16.4671L222.413 17.3199L225.965 13.7751L228.044 15.8506L229.228 14.669ZM222.186 10.0043L224.873 12.686L222.855 14.6998L222.186 10.0043Z" fill="#FFDA24"/>
<g filter="url(#filter19_i)">
<path d="M82.3813 86.0236C82.1556 83.8711 83.344 81.8171 85.3247 80.9359L104.481 72.4135C106.461 71.5323 108.784 72.0242 110.234 73.6321L124.255 89.1814C125.705 90.7893 125.952 93.1473 124.867 95.0223L114.377 113.155C113.292 115.03 111.122 115.995 109.002 115.546L88.4975 111.203C86.3773 110.754 84.789 108.993 84.5634 106.84L82.3813 86.0236Z" fill="#F9C190"/>
</g>
<path d="M117.014 50.6549L116.057 51.6105L114.183 49.1857L113.009 50.357L114.883 52.7818L113.452 54.2099L111.578 51.7851L110.394 52.9667L112.268 55.3915L111.012 56.645L112.103 57.7341L113.215 56.6245L114.739 58.5972L113.637 59.6966L114.729 60.7857L115.686 59.8301L117.56 62.2549L118.734 61.0836L116.86 58.6588L118.291 57.2307L120.165 59.6555L121.349 58.4739L119.475 56.0491L120.741 54.7853L119.65 53.6962L118.528 54.8161L117.004 52.8434L118.106 51.744L117.014 50.6549ZM115.913 57.4259L114.399 55.4429L115.83 54.0147L117.344 55.9977L115.913 57.4259ZM126.795 36.5995L121.76 41.6238L129.997 49.8435L131.181 48.6619L127.845 45.3329L130.306 42.8773L129.215 41.7882L126.754 44.2438L124.036 41.5313L127.886 37.6886L126.795 36.5995ZM132.978 30.4298L127.943 35.454L136.18 43.6737L137.364 42.4921L134.028 39.1632L136.488 36.7075L135.397 35.6184L132.936 38.0741L130.218 35.3616L134.069 31.5189L132.978 30.4298ZM144.864 35.2949C146.882 33.2811 146.913 31.8529 145.101 30.0446C143.978 28.9246 143.268 28.6678 142.208 28.863C142.28 28.0308 142.043 27.4657 141.127 26.5512C139.5 24.9278 138.172 24.9587 136.339 26.7875C134.506 28.6164 134.486 29.9316 136.112 31.5549C137.029 32.4694 137.585 32.716 138.419 32.644C138.223 33.7023 138.491 34.401 139.613 35.5209C141.425 37.3293 142.846 37.3087 144.864 35.2949ZM139.819 30.2603C138.748 31.3289 138.378 31.4522 137.296 30.3734C136.38 29.4589 136.36 28.9452 137.43 27.8766C138.501 26.8081 139.026 26.8184 139.943 27.7328C141.024 28.8116 140.89 29.1918 139.819 30.2603ZM143.773 34.2058C142.516 35.4593 141.899 35.4387 140.797 34.3394C139.531 33.0756 139.654 32.603 140.91 31.3495C142.166 30.096 142.65 29.9624 143.917 31.2262C145.018 32.3255 145.029 32.9523 143.773 34.2058ZM153.826 26.0633L143.294 20.1349L142.048 21.3781L147.978 31.8993L149.203 30.6766L147.814 28.2415L150.161 25.8989L152.601 27.286L153.826 26.0633ZM144.694 22.7857L148.771 25.1078L147.021 26.8544L144.694 22.7857ZM159.772 20.1298L158.681 19.0407L154.511 23.2019C153.708 21.3731 156.302 16.6262 153.739 14.0678C152.019 12.352 150.691 12.465 148.694 14.4583C146.604 16.544 146.604 17.9002 148.642 19.7702L149.826 18.5886C148.519 17.4071 148.457 16.8728 149.785 15.5474C151.021 14.3144 151.556 14.2528 152.555 15.2494C154.624 17.3146 151.288 22.4108 153.605 24.7226L154.387 25.5034L159.772 20.1298ZM165.244 14.669L163.164 12.5935L163.926 11.8332L162.835 10.7441L162.073 11.5044L157.007 6.44933L156.019 7.43569L157.574 16.4671L158.428 17.3199L161.98 13.7751L164.06 15.8506L165.244 14.669ZM158.202 10.0043L160.889 12.686L158.871 14.6998L158.202 10.0043Z" fill="#FF8A24"/>
<g filter="url(#filter20_i)">
<path d="M18.3969 86.0236C18.1713 83.8711 19.3596 81.8171 21.3404 80.9359L40.4962 72.4135C42.4769 71.5323 44.7996 72.0242 46.2495 73.6321L60.2705 89.1814C61.7203 90.7893 61.9675 93.1473 60.8827 95.0223L50.3924 113.155C49.3077 115.03 47.1378 115.995 45.0175 115.546L24.5132 111.203C22.3929 110.754 20.8047 108.993 20.579 106.84L18.3969 86.0236Z" fill="#F99590"/>
</g>
<path d="M53.0299 50.6549L52.0724 51.6105L50.1986 49.1857L49.0249 50.357L50.8987 52.7818L49.4676 54.2099L47.5938 51.7851L46.4097 52.9667L48.2836 55.3915L47.0275 56.645L48.1188 57.7341L49.2308 56.6245L50.7546 58.5972L49.6529 59.6966L50.7443 60.7857L51.7018 59.8301L53.5756 62.2549L54.7493 61.0836L52.8755 58.6588L54.3066 57.2307L56.1804 59.6555L57.3644 58.4739L55.4906 56.0491L56.757 54.7853L55.6656 53.6962L54.5434 54.8161L53.0196 52.8434L54.1213 51.744L53.0299 50.6549ZM51.9283 57.4259L50.4148 55.4429L51.8459 54.0147L53.3594 55.9977L51.9283 57.4259ZM62.8107 36.5995L57.776 41.6238L66.0127 49.8435L67.1967 48.6619L63.8608 45.3329L66.3215 42.8773L65.2302 41.7882L62.7695 44.2438L60.0514 41.5313L63.902 37.6886L62.8107 36.5995ZM68.9932 30.4298L63.9585 35.454L72.1951 43.6737L73.3792 42.4921L70.0433 39.1632L72.504 36.7075L71.4127 35.6184L68.952 38.0741L66.2339 35.3616L70.0845 31.5189L68.9932 30.4298ZM83.4226 32.4694L82.3312 31.3803L78.1614 35.5415C77.3584 33.7126 79.9529 28.9657 77.3892 26.4074C75.6698 24.6915 74.3417 24.8045 72.3443 26.7978C70.2543 28.8835 70.2543 30.2398 72.2928 32.1098L73.4768 30.9282C72.1693 29.7466 72.1075 29.2123 73.4357 27.8869C74.6712 26.654 75.2065 26.5923 76.2052 27.5889C78.2747 29.6541 74.9388 34.7503 77.2554 37.0621L78.0379 37.843L83.4226 32.4694ZM81.3581 18.0902L76.3235 23.1145L84.5601 31.3342L85.7441 30.1526L82.4083 26.8236L84.869 24.368L83.7776 23.2789L81.317 25.7345L78.5989 23.022L82.4495 19.1793L81.3581 18.0902ZM95.7875 20.1298L94.6962 19.0407L90.5264 23.2019C89.7233 21.3731 92.3179 16.6262 89.7542 14.0678C88.0348 12.352 86.7067 12.465 84.7093 14.4583C82.6193 16.544 82.6193 17.9002 84.6578 19.7702L85.8418 18.5886C84.5343 17.4071 84.4725 16.8728 85.8006 15.5474C87.0361 14.3144 87.5715 14.2528 88.5702 15.2494C90.6397 17.3146 87.3038 22.4108 89.6204 24.7226L90.4029 25.5034L95.7875 20.1298ZM101.26 14.669L99.1799 12.5935L99.9418 11.8332L98.8504 10.7441L98.0885 11.5044L93.023 6.44933L92.0346 7.43569L93.5893 16.4671L94.4438 17.3199L97.9959 13.7751L100.076 15.8506L101.26 14.669ZM94.2173 10.0043L96.9045 12.686L94.8865 14.6998L94.2173 10.0043Z" fill="#FF2F24"/>
<defs>
<filter id="filter0_i" x="405.509" y="141.765" width="34.2901" height="34.9814" filterUnits="userSpaceOnUse" color-interpolation-filters="sRGB">
<feFlood flood-opacity="0" result="BackgroundImageFix"/>
<feBlend mode="normal" in="SourceGraphic" in2="BackgroundImageFix" result="shape"/>
<feColorMatrix in="SourceAlpha" type="matrix" values="0 0 0 0 0 0 0 0 0 0 0 0 0 0 0 0 0 0 127 0" result="hardAlpha"/>
<feOffset dy="4"/>
<feGaussianBlur stdDeviation="2"/>
<feComposite in2="hardAlpha" operator="arithmetic" k2="-1" k3="1"/>
<feColorMatrix type="matrix" values="0 0 0 0 0 0 0 0 0 0 0 0 0 0 0 0 0 0 0.25 0"/>
<feBlend mode="normal" in2="shape" result="effect1_innerShadow"/>
</filter>
<filter id="filter1_i" x="341.594" y="142.762" width="34.2901" height="34.9814" filterUnits="userSpaceOnUse" color-interpolation-filters="sRGB">
<feFlood flood-opacity="0" result="BackgroundImageFix"/>
<feBlend mode="normal" in="SourceGraphic" in2="BackgroundImageFix" result="shape"/>
<feColorMatrix in="SourceAlpha" type="matrix" values="0 0 0 0 0 0 0 0 0 0 0 0 0 0 0 0 0 0 127 0" result="hardAlpha"/>
<feOffset dy="4"/>
<feGaussianBlur stdDeviation="2"/>
<feComposite in2="hardAlpha" operator="arithmetic" k2="-1" k3="1"/>
<feColorMatrix type="matrix" values="0 0 0 0 0 0 0 0 0 0 0 0 0 0 0 0 0 0 0.25 0"/>
<feBlend mode="normal" in2="shape" result="effect1_innerShadow"/>
</filter>
<filter id="filter2_i" x="277.609" y="142.399" width="34.2901" height="34.9814" filterUnits="userSpaceOnUse" color-interpolation-filters="sRGB">
<feFlood flood-opacity="0" result="BackgroundImageFix"/>
<feBlend mode="normal" in="SourceGraphic" in2="BackgroundImageFix" result="shape"/>
<feColorMatrix in="SourceAlpha" type="matrix" values="0 0 0 0 0 0 0 0 0 0 0 0 0 0 0 0 0 0 127 0" result="hardAlpha"/>
<feOffset dy="4"/>
<feGaussianBlur stdDeviation="2"/>
<feComposite in2="hardAlpha" operator="arithmetic" k2="-1" k3="1"/>
<feColorMatrix type="matrix" values="0 0 0 0 0 0 0 0 0 0 0 0 0 0 0 0 0 0 0.25 0"/>
<feBlend mode="normal" in2="shape" result="effect1_innerShadow"/>
</filter>
<filter id="filter3_i" x="213.625" y="142.399" width="34.2901" height="34.9814" filterUnits="userSpaceOnUse" color-interpolation-filters="sRGB">
<feFlood flood-opacity="0" result="BackgroundImageFix"/>
<feBlend mode="normal" in="SourceGraphic" in2="BackgroundImageFix" result="shape"/>
<feColorMatrix in="SourceAlpha" type="matrix" values="0 0 0 0 0 0 0 0 0 0 0 0 0 0 0 0 0 0 127 0" result="hardAlpha"/>
<feOffset dy="4"/>
<feGaussianBlur stdDeviation="2"/>
<feComposite in2="hardAlpha" operator="arithmetic" k2="-1" k3="1"/>
<feColorMatrix type="matrix" values="0 0 0 0 0 0 0 0 0 0 0 0 0 0 0 0 0 0 0.25 0"/>
<feBlend mode="normal" in2="shape" result="effect1_innerShadow"/>
</filter>
<filter id="filter4_i" x="149.641" y="142.399" width="34.2901" height="34.9814" filterUnits="userSpaceOnUse" color-interpolation-filters="sRGB">
<feFlood flood-opacity="0" result="BackgroundImageFix"/>
<feBlend mode="normal" in="SourceGraphic" in2="BackgroundImageFix" result="shape"/>
<feColorMatrix in="SourceAlpha" type="matrix" values="0 0 0 0 0 0 0 0 0 0 0 0 0 0 0 0 0 0 127 0" result="hardAlpha"/>
<feOffset dy="4"/>
<feGaussianBlur stdDeviation="2"/>
<feComposite in2="hardAlpha" operator="arithmetic" k2="-1" k3="1"/>
<feColorMatrix type="matrix" values="0 0 0 0 0 0 0 0 0 0 0 0 0 0 0 0 0 0 0.25 0"/>
<feBlend mode="normal" in2="shape" result="effect1_innerShadow"/>
</filter>
<filter id="filter5_i" x="85.6563" y="142.399" width="34.2901" height="34.9814" filterUnits="userSpaceOnUse" color-interpolation-filters="sRGB">
<feFlood flood-opacity="0" result="BackgroundImageFix"/>
<feBlend mode="normal" in="SourceGraphic" in2="BackgroundImageFix" result="shape"/>
<feColorMatrix in="SourceAlpha" type="matrix" values="0 0 0 0 0 0 0 0 0 0 0 0 0 0 0 0 0 0 127 0" result="hardAlpha"/>
<feOffset dy="4"/>
<feGaussianBlur stdDeviation="2"/>
<feComposite in2="hardAlpha" operator="arithmetic" k2="-1" k3="1"/>
<feColorMatrix type="matrix" values="0 0 0 0 0 0 0 0 0 0 0 0 0 0 0 0 0 0 0.25 0"/>
<feBlend mode="normal" in2="shape" result="effect1_innerShadow"/>
</filter>
<filter id="filter6_i" x="21.6719" y="142.399" width="34.2901" height="34.9814" filterUnits="userSpaceOnUse" color-interpolation-filters="sRGB">
<feFlood flood-opacity="0" result="BackgroundImageFix"/>
<feBlend mode="normal" in="SourceGraphic" in2="BackgroundImageFix" result="shape"/>
<feColorMatrix in="SourceAlpha" type="matrix" values="0 0 0 0 0 0 0 0 0 0 0 0 0 0 0 0 0 0 127 0" result="hardAlpha"/>
<feOffset dy="4"/>
<feGaussianBlur stdDeviation="2"/>
<feComposite in2="hardAlpha" operator="arithmetic" k2="-1" k3="1"/>
<feColorMatrix type="matrix" values="0 0 0 0 0 0 0 0 0 0 0 0 0 0 0 0 0 0 0.25 0"/>
<feBlend mode="normal" in2="shape" result="effect1_innerShadow"/>
</filter>
<filter id="filter7_i" x="390.131" y="89.7795" width="64.8054" height="68.7122" filterUnits="userSpaceOnUse" color-interpolation-filters="sRGB">
<feFlood flood-opacity="0" result="BackgroundImageFix"/>
<feBlend mode="normal" in="SourceGraphic" in2="BackgroundImageFix" result="shape"/>
<feColorMatrix in="SourceAlpha" type="matrix" values="0 0 0 0 0 0 0 0 0 0 0 0 0 0 0 0 0 0 127 0" result="hardAlpha"/>
<feOffset dy="4"/>
<feGaussianBlur stdDeviation="2"/>
<feComposite in2="hardAlpha" operator="arithmetic" k2="-1" k3="1"/>
<feColorMatrix type="matrix" values="0 0 0 0 0 0 0 0 0 0 0 0 0 0 0 0 0 0 0.25 0"/>
<feBlend mode="normal" in2="shape" result="effect1_innerShadow"/>
</filter>
<filter id="filter8_i" x="327.987" y="90.7772" width="64.8054" height="68.7122" filterUnits="userSpaceOnUse" color-interpolation-filters="sRGB">
<feFlood flood-opacity="0" result="BackgroundImageFix"/>
<feBlend mode="normal" in="SourceGraphic" in2="BackgroundImageFix" result="shape"/>
<feColorMatrix in="SourceAlpha" type="matrix" values="0 0 0 0 0 0 0 0 0 0 0 0 0 0 0 0 0 0 127 0" result="hardAlpha"/>
<feOffset dy="4"/>
<feGaussianBlur stdDeviation="2"/>
<feComposite in2="hardAlpha" operator="arithmetic" k2="-1" k3="1"/>
<feColorMatrix type="matrix" values="0 0 0 0 0 0 0 0 0 0 0 0 0 0 0 0 0 0 0.25 0"/>
<feBlend mode="normal" in2="shape" result="effect1_innerShadow"/>
</filter>
<filter id="filter9_i" x="264.002" y="90.4141" width="64.8054" height="68.7122" filterUnits="userSpaceOnUse" color-interpolation-filters="sRGB">
<feFlood flood-opacity="0" result="BackgroundImageFix"/>
<feBlend mode="normal" in="SourceGraphic" in2="BackgroundImageFix" result="shape"/>
<feColorMatrix in="SourceAlpha" type="matrix" values="0 0 0 0 0 0 0 0 0 0 0 0 0 0 0 0 0 0 127 0" result="hardAlpha"/>
<feOffset dy="4"/>
<feGaussianBlur stdDeviation="2"/>
<feComposite in2="hardAlpha" operator="arithmetic" k2="-1" k3="1"/>
<feColorMatrix type="matrix" values="0 0 0 0 0 0 0 0 0 0 0 0 0 0 0 0 0 0 0.25 0"/>
<feBlend mode="normal" in2="shape" result="effect1_innerShadow"/>
</filter>
<filter id="filter10_i" x="200.018" y="90.4141" width="64.8054" height="68.7122" filterUnits="userSpaceOnUse" color-interpolation-filters="sRGB">
<feFlood flood-opacity="0" result="BackgroundImageFix"/>
<feBlend mode="normal" in="SourceGraphic" in2="BackgroundImageFix" result="shape"/>
<feColorMatrix in="SourceAlpha" type="matrix" values="0 0 0 0 0 0 0 0 0 0 0 0 0 0 0 0 0 0 127 0" result="hardAlpha"/>
<feOffset dy="4"/>
<feGaussianBlur stdDeviation="2"/>
<feComposite in2="hardAlpha" operator="arithmetic" k2="-1" k3="1"/>
<feColorMatrix type="matrix" values="0 0 0 0 0 0 0 0 0 0 0 0 0 0 0 0 0 0 0.25 0"/>
<feBlend mode="normal" in2="shape" result="effect1_innerShadow"/>
</filter>
<filter id="filter11_i" x="136.034" y="90.4141" width="64.8054" height="68.7122" filterUnits="userSpaceOnUse" color-interpolation-filters="sRGB">
<feFlood flood-opacity="0" result="BackgroundImageFix"/>
<feBlend mode="normal" in="SourceGraphic" in2="BackgroundImageFix" result="shape"/>
<feColorMatrix in="SourceAlpha" type="matrix" values="0 0 0 0 0 0 0 0 0 0 0 0 0 0 0 0 0 0 127 0" result="hardAlpha"/>
<feOffset dy="4"/>
<feGaussianBlur stdDeviation="2"/>
<feComposite in2="hardAlpha" operator="arithmetic" k2="-1" k3="1"/>
<feColorMatrix type="matrix" values="0 0 0 0 0 0 0 0 0 0 0 0 0 0 0 0 0 0 0.25 0"/>
<feBlend mode="normal" in2="shape" result="effect1_innerShadow"/>
</filter>
<filter id="filter12_i" x="72.0492" y="90.4141" width="64.8054" height="68.7122" filterUnits="userSpaceOnUse" color-interpolation-filters="sRGB">
<feFlood flood-opacity="0" result="BackgroundImageFix"/>
<feBlend mode="normal" in="SourceGraphic" in2="BackgroundImageFix" result="shape"/>
<feColorMatrix in="SourceAlpha" type="matrix" values="0 0 0 0 0 0 0 0 0 0 0 0 0 0 0 0 0 0 127 0" result="hardAlpha"/>
<feOffset dy="4"/>
<feGaussianBlur stdDeviation="2"/>
<feComposite in2="hardAlpha" operator="arithmetic" k2="-1" k3="1"/>
<feColorMatrix type="matrix" values="0 0 0 0 0 0 0 0 0 0 0 0 0 0 0 0 0 0 0.25 0"/>
<feBlend mode="normal" in2="shape" result="effect1_innerShadow"/>
</filter>
<filter id="filter13_i" x="8.06481" y="90.4141" width="64.8054" height="68.7122" filterUnits="userSpaceOnUse" color-interpolation-filters="sRGB">
<feFlood flood-opacity="0" result="BackgroundImageFix"/>
<feBlend mode="normal" in="SourceGraphic" in2="BackgroundImageFix" result="shape"/>
<feColorMatrix in="SourceAlpha" type="matrix" values="0 0 0 0 0 0 0 0 0 0 0 0 0 0 0 0 0 0 127 0" result="hardAlpha"/>
<feOffset dy="4"/>
<feGaussianBlur stdDeviation="2"/>
<feComposite in2="hardAlpha" operator="arithmetic" k2="-1" k3="1"/>
<feColorMatrix type="matrix" values="0 0 0 0 0 0 0 0 0 0 0 0 0 0 0 0 0 0 0.25 0"/>
<feBlend mode="normal" in2="shape" result="effect1_innerShadow"/>
</filter>
<filter id="filter14_i" x="402.207" y="71.3459" width="43.1847" height="47.6745" filterUnits="userSpaceOnUse" color-interpolation-filters="sRGB">
<feFlood flood-opacity="0" result="BackgroundImageFix"/>
<feBlend mode="normal" in="SourceGraphic" in2="BackgroundImageFix" result="shape"/>
<feColorMatrix in="SourceAlpha" type="matrix" values="0 0 0 0 0 0 0 0 0 0 0 0 0 0 0 0 0 0 127 0" result="hardAlpha"/>
<feOffset dy="4"/>
<feGaussianBlur stdDeviation="2"/>
<feComposite in2="hardAlpha" operator="arithmetic" k2="-1" k3="1"/>
<feColorMatrix type="matrix" values="0 0 0 0 0 0 0 0 0 0 0 0 0 0 0 0 0 0 0.25 0"/>
<feBlend mode="normal" in2="shape" result="effect1_innerShadow"/>
</filter>
<filter id="filter15_i" x="338.292" y="72.3436" width="43.1847" height="47.6745" filterUnits="userSpaceOnUse" color-interpolation-filters="sRGB">
<feFlood flood-opacity="0" result="BackgroundImageFix"/>
<feBlend mode="normal" in="SourceGraphic" in2="BackgroundImageFix" result="shape"/>
<feColorMatrix in="SourceAlpha" type="matrix" values="0 0 0 0 0 0 0 0 0 0 0 0 0 0 0 0 0 0 127 0" result="hardAlpha"/>
<feOffset dy="4"/>
<feGaussianBlur stdDeviation="2"/>
<feComposite in2="hardAlpha" operator="arithmetic" k2="-1" k3="1"/>
<feColorMatrix type="matrix" values="0 0 0 0 0 0 0 0 0 0 0 0 0 0 0 0 0 0 0.25 0"/>
<feBlend mode="normal" in2="shape" result="effect1_innerShadow"/>
</filter>
<filter id="filter16_i" x="274.307" y="71.9805" width="43.1847" height="47.6745" filterUnits="userSpaceOnUse" color-interpolation-filters="sRGB">
<feFlood flood-opacity="0" result="BackgroundImageFix"/>
<feBlend mode="normal" in="SourceGraphic" in2="BackgroundImageFix" result="shape"/>
<feColorMatrix in="SourceAlpha" type="matrix" values="0 0 0 0 0 0 0 0 0 0 0 0 0 0 0 0 0 0 127 0" result="hardAlpha"/>
<feOffset dy="4"/>
<feGaussianBlur stdDeviation="2"/>
<feComposite in2="hardAlpha" operator="arithmetic" k2="-1" k3="1"/>
<feColorMatrix type="matrix" values="0 0 0 0 0 0 0 0 0 0 0 0 0 0 0 0 0 0 0.25 0"/>
<feBlend mode="normal" in2="shape" result="effect1_innerShadow"/>
</filter>
<filter id="filter17_i" x="210.323" y="71.9805" width="43.1847" height="47.6745" filterUnits="userSpaceOnUse" color-interpolation-filters="sRGB">
<feFlood flood-opacity="0" result="BackgroundImageFix"/>
<feBlend mode="normal" in="SourceGraphic" in2="BackgroundImageFix" result="shape"/>
<feColorMatrix in="SourceAlpha" type="matrix" values="0 0 0 0 0 0 0 0 0 0 0 0 0 0 0 0 0 0 127 0" result="hardAlpha"/>
<feOffset dy="4"/>
<feGaussianBlur stdDeviation="2"/>
<feComposite in2="hardAlpha" operator="arithmetic" k2="-1" k3="1"/>
<feColorMatrix type="matrix" values="0 0 0 0 0 0 0 0 0 0 0 0 0 0 0 0 0 0 0.25 0"/>
<feBlend mode="normal" in2="shape" result="effect1_innerShadow"/>
</filter>
<filter id="filter18_i" x="146.338" y="71.9805" width="43.1847" height="47.6745" filterUnits="userSpaceOnUse" color-interpolation-filters="sRGB">
<feFlood flood-opacity="0" result="BackgroundImageFix"/>
<feBlend mode="normal" in="SourceGraphic" in2="BackgroundImageFix" result="shape"/>
<feColorMatrix in="SourceAlpha" type="matrix" values="0 0 0 0 0 0 0 0 0 0 0 0 0 0 0 0 0 0 127 0" result="hardAlpha"/>
<feOffset dy="4"/>
<feGaussianBlur stdDeviation="2"/>
<feComposite in2="hardAlpha" operator="arithmetic" k2="-1" k3="1"/>
<feColorMatrix type="matrix" values="0 0 0 0 0 0 0 0 0 0 0 0 0 0 0 0 0 0 0.25 0"/>
<feBlend mode="normal" in2="shape" result="effect1_innerShadow"/>
</filter>
<filter id="filter19_i" x="82.354" y="71.9805" width="43.1847" height="47.6745" filterUnits="userSpaceOnUse" color-interpolation-filters="sRGB">
<feFlood flood-opacity="0" result="BackgroundImageFix"/>
<feBlend mode="normal" in="SourceGraphic" in2="BackgroundImageFix" result="shape"/>
<feColorMatrix in="SourceAlpha" type="matrix" values="0 0 0 0 0 0 0 0 0 0 0 0 0 0 0 0 0 0 127 0" result="hardAlpha"/>
<feOffset dy="4"/>
<feGaussianBlur stdDeviation="2"/>
<feComposite in2="hardAlpha" operator="arithmetic" k2="-1" k3="1"/>
<feColorMatrix type="matrix" values="0 0 0 0 0 0 0 0 0 0 0 0 0 0 0 0 0 0 0.25 0"/>
<feBlend mode="normal" in2="shape" result="effect1_innerShadow"/>
</filter>
<filter id="filter20_i" x="18.3696" y="71.9805" width="43.1847" height="47.6745" filterUnits="userSpaceOnUse" color-interpolation-filters="sRGB">
<feFlood flood-opacity="0" result="BackgroundImageFix"/>
<feBlend mode="normal" in="SourceGraphic" in2="BackgroundImageFix" result="shape"/>
<feColorMatrix in="SourceAlpha" type="matrix" values="0 0 0 0 0 0 0 0 0 0 0 0 0 0 0 0 0 0 127 0" result="hardAlpha"/>
<feOffset dy="4"/>
<feGaussianBlur stdDeviation="2"/>
<feComposite in2="hardAlpha" operator="arithmetic" k2="-1" k3="1"/>
<feColorMatrix type="matrix" values="0 0 0 0 0 0 0 0 0 0 0 0 0 0 0 0 0 0 0.25 0"/>
<feBlend mode="normal" in2="shape" result="effect1_innerShadow"/>
</filter>
</defs>
</svg>
